<?xml version="1.0" standalone="no"?>
 <!DOCTYPE svg PUBLIC "-//W3C//DTD SVG 1.1//EN" 
 "http://www.w3.org/Graphics/SVG/1.1/DTD/svg11.dtd"> 
<svg
  xmlns:svg="http://www.w3.org/2000/svg"
  xmlns="http://www.w3.org/2000/svg"
  xmlns:xlink="http://www.w3.org/1999/xlink"
  version="1.1"
  width="29.700220cm" height="21.000720cm" viewBox="0 0 297002200 210007200">
<title>SVG Picture created as CarPiPowerHat.svg date 2022/01/23 20:19:55 </title>
  <desc>Picture generated by PCBNEW </desc>
<g style="fill:#000000; fill-opacity:1.000000;stroke:#000000; stroke-opacity:1.000000;
stroke-linecap:round; stroke-linejoin:round;"
 transform="translate(0 0) scale(1 1)">
</g>
<g style="fill:#000000; fill-opacity:0.0; 
stroke:#000000; stroke-width:0.000000; stroke-opacity:1; 
stroke-linecap:round; stroke-linejoin:round;">
</g>
<g style="fill:#000000; fill-opacity:0.0; 
stroke:#000000; stroke-width:39.370079; stroke-opacity:1; 
stroke-linecap:round; stroke-linejoin:round;">
<path d="M31889 45866
L67125 45866
" />
<path d="M38385.826772 13976.377953 A393.700394 393.700394 0.0 0 0 38779.526378 14370.079921" />
<path d="M38385 13976
L38385 12795
" />
<path d="M38385.826772 12795.275591 A393.700394 393.700394 0.0 0 0 37992.127165 12401.573622" />
<path d="M44685 14370
L38779 14370
" />
<path d="M30710.722441 44685.041339 A1181.103150 1181.103150 0.0 0 0 31889.763779 45866.141901" />
<path d="M30708 13582
L30710 44685
" />
<path d="M45472.439764 12401.575984 A393.699213 393.699213 0.0 0 0 45078.740157 12795.275591" />
<path d="M37992 12401
L31889 12401
" />
<path d="M68503.936220 13779.526772 A1377.952362 1377.952362 0.0 0 0 67125.984252 12401.574803" />
<path d="M45078 12795
L45078 13976
" />
<path d="M67125 12401
L45472 12401
" />
<path d="M68503 13779
L68503 44488
" />
<path d="M67125.984252 45866.141732 A1377.953150 1377.953150 0.0 0 0 68503.937795 44488.189764" />
</g>
<g style="fill:#000000; fill-opacity:0.0; 
stroke:#000000; stroke-width:59.055118; stroke-opacity:1; 
stroke-linecap:round; stroke-linejoin:round;">
<path d="M44685.039370 14370.078740 A393.700394 393.700394 0.0 0 0 45078.740157 13976.377953" />
</g>
<g style="fill:#000000; fill-opacity:0.0; 
stroke:#000000; stroke-width:39.370079; stroke-opacity:1; 
stroke-linecap:round; stroke-linejoin:round;">
<path d="M31889.763780 12401.574803 A1181.102756 1181.102756 0.0 0 0 30708.661417 13582.677165" />
<g >
</g>
<g >
</g>
<g >
</g>
<g >
</g>
<g >
</g>
<g >
</g>
<g >
</g>
<g >
</g>
<g >
</g>
<g >
</g>
<g >
</g>
<g >
</g>
<g >
</g>
<g >
</g>
<g >
</g>
<g >
</g>
<g >
</g>
<g >
</g>
<g >
</g>
<g >
</g>
<g >
</g>
<g >
</g>
<g >
</g>
<g >
</g>
<g >
</g>
<g >
</g>
<g >
</g>
<g >
</g>
<g >
</g>
<g >
</g>
<g >
</g>
<g >
</g>
<g >
</g>
<g >
</g>
<g >
</g>
<g >
</g>
<g >
</g>
<g >
</g>
<g >
</g>
<g >
</g>
<g >
</g>
<g >
</g>
<g >
</g>
<g >
</g>
<g >
</g>
<g >
</g>
<g >
</g>
<g >
</g>
<g >
</g>
<g >
</g>
<g >
</g>
<g >
</g>
<g >
</g>
<g >
</g>
<g >
</g>
<g >
</g>
<g >
</g>
<g >
</g>
<g >
</g>
<g >
</g>
<g >
</g>
<g >
</g>
<g >
</g>
<g >
</g>
<g >
</g>
<g >
</g>
<g >
</g>
<g >
</g>
<g >
</g>
<g >
</g>
<g >
</g>
<g >
</g>
<g >
</g>
<g >
</g>
<g >
</g>
<g >
</g>
<g >
</g>
<g >
</g>
<g >
</g>
<g >
</g>
<g >
</g>
<g >
</g>
<g >
</g>
<g >
</g>
<g >
</g>
<g >
</g>
<g >
</g>
<g >
</g>
<g >
</g>
<g >
</g>
<g >
</g>
<g >
</g>
<g >
</g>
<g >
</g>
<g >
</g>
<g >
</g>
<g >
</g>
<g >
</g>
<g >
</g>
<g >
</g>
<g >
</g>
<g >
</g>
<g >
</g>
<g >
</g>
<g >
</g>
<g >
</g>
<g >
</g>
<g >
</g>
<g >
</g>
<g >
</g>
<g >
</g>
<g >
</g>
<g >
</g>
<g >
</g>
<g >
</g>
<g >
</g>
<g >
</g>
<g >
</g>
</g> 
</svg>
