G04 #@! TF.GenerationSoftware,KiCad,Pcbnew,(5.99.0-11120-g1d6ad4a52a)*
G04 #@! TF.CreationDate,2021-08-25T17:06:27+02:00*
G04 #@! TF.ProjectId,CarPiPowerHat,43617250-6950-46f7-9765-724861742e6b,0.2*
G04 #@! TF.SameCoordinates,Original*
G04 #@! TF.FileFunction,Paste,Top*
G04 #@! TF.FilePolarity,Positive*
%FSLAX46Y46*%
G04 Gerber Fmt 4.6, Leading zero omitted, Abs format (unit mm)*
G04 Created by KiCad (PCBNEW (5.99.0-11120-g1d6ad4a52a)) date 2021-08-25 17:06:27*
%MOMM*%
%LPD*%
G01*
G04 APERTURE LIST*
G04 Aperture macros list*
%AMRoundRect*
0 Rectangle with rounded corners*
0 $1 Rounding radius*
0 $2 $3 $4 $5 $6 $7 $8 $9 X,Y pos of 4 corners*
0 Add a 4 corners polygon primitive as box body*
4,1,4,$2,$3,$4,$5,$6,$7,$8,$9,$2,$3,0*
0 Add four circle primitives for the rounded corners*
1,1,$1+$1,$2,$3*
1,1,$1+$1,$4,$5*
1,1,$1+$1,$6,$7*
1,1,$1+$1,$8,$9*
0 Add four rect primitives between the rounded corners*
20,1,$1+$1,$2,$3,$4,$5,0*
20,1,$1+$1,$4,$5,$6,$7,0*
20,1,$1+$1,$6,$7,$8,$9,0*
20,1,$1+$1,$8,$9,$2,$3,0*%
G04 Aperture macros list end*
G04 #@! TA.AperFunction,Profile*
%ADD10C,0.100000*%
G04 #@! TD*
G04 #@! TA.AperFunction,Profile*
%ADD11C,0.150000*%
G04 #@! TD*
%ADD12RoundRect,0.135000X0.185000X-0.135000X0.185000X0.135000X-0.185000X0.135000X-0.185000X-0.135000X0*%
%ADD13RoundRect,0.200000X0.275000X-0.200000X0.275000X0.200000X-0.275000X0.200000X-0.275000X-0.200000X0*%
%ADD14R,0.900000X0.800000*%
%ADD15R,1.060000X0.650000*%
%ADD16R,0.600000X1.550000*%
%ADD17R,2.800000X2.600000*%
%ADD18R,2.800000X2.200000*%
%ADD19R,2.800000X2.800000*%
%ADD20R,0.450000X0.600000*%
%ADD21RoundRect,0.100000X0.100000X-0.637500X0.100000X0.637500X-0.100000X0.637500X-0.100000X-0.637500X0*%
%ADD22RoundRect,0.250000X0.475000X-0.250000X0.475000X0.250000X-0.475000X0.250000X-0.475000X-0.250000X0*%
%ADD23RoundRect,0.225000X0.250000X-0.225000X0.250000X0.225000X-0.250000X0.225000X-0.250000X-0.225000X0*%
%ADD24RoundRect,0.250000X-0.450000X0.262500X-0.450000X-0.262500X0.450000X-0.262500X0.450000X0.262500X0*%
%ADD25RoundRect,0.250000X0.550000X-1.500000X0.550000X1.500000X-0.550000X1.500000X-0.550000X-1.500000X0*%
%ADD26RoundRect,0.140000X0.140000X0.170000X-0.140000X0.170000X-0.140000X-0.170000X0.140000X-0.170000X0*%
%ADD27R,1.800000X1.000000*%
%ADD28RoundRect,0.140000X0.170000X-0.140000X0.170000X0.140000X-0.170000X0.140000X-0.170000X-0.140000X0*%
%ADD29R,1.000000X0.400000*%
%ADD30RoundRect,0.250000X0.250000X0.475000X-0.250000X0.475000X-0.250000X-0.475000X0.250000X-0.475000X0*%
%ADD31RoundRect,0.250000X0.460000X-0.315000X0.460000X0.315000X-0.460000X0.315000X-0.460000X-0.315000X0*%
%ADD32RoundRect,0.150000X0.150000X-0.737500X0.150000X0.737500X-0.150000X0.737500X-0.150000X-0.737500X0*%
%ADD33R,0.650000X1.100000*%
%ADD34RoundRect,0.135000X-0.185000X0.135000X-0.185000X-0.135000X0.185000X-0.135000X0.185000X0.135000X0*%
%ADD35RoundRect,0.250000X-0.475000X0.250000X-0.475000X-0.250000X0.475000X-0.250000X0.475000X0.250000X0*%
%ADD36RoundRect,0.250000X0.450000X-0.262500X0.450000X0.262500X-0.450000X0.262500X-0.450000X-0.262500X0*%
%ADD37RoundRect,0.250000X-0.250000X-0.475000X0.250000X-0.475000X0.250000X0.475000X-0.250000X0.475000X0*%
%ADD38RoundRect,0.225000X0.225000X0.250000X-0.225000X0.250000X-0.225000X-0.250000X0.225000X-0.250000X0*%
%ADD39RoundRect,0.225000X-0.225000X-0.250000X0.225000X-0.250000X0.225000X0.250000X-0.225000X0.250000X0*%
%ADD40RoundRect,0.250000X-0.262500X-0.450000X0.262500X-0.450000X0.262500X0.450000X-0.262500X0.450000X0*%
%ADD41RoundRect,0.140000X-0.140000X-0.170000X0.140000X-0.170000X0.140000X0.170000X-0.140000X0.170000X0*%
%ADD42RoundRect,0.200000X-0.200000X-0.275000X0.200000X-0.275000X0.200000X0.275000X-0.200000X0.275000X0*%
%ADD43R,3.150000X1.960000*%
%ADD44RoundRect,0.150000X-0.825000X-0.150000X0.825000X-0.150000X0.825000X0.150000X-0.825000X0.150000X0*%
%ADD45R,5.080000X1.270000*%
%ADD46R,3.960000X3.960000*%
%ADD47RoundRect,0.140000X-0.170000X0.140000X-0.170000X-0.140000X0.170000X-0.140000X0.170000X0.140000X0*%
%ADD48RoundRect,0.150000X0.587500X0.150000X-0.587500X0.150000X-0.587500X-0.150000X0.587500X-0.150000X0*%
%ADD49RoundRect,0.150000X0.150000X-0.587500X0.150000X0.587500X-0.150000X0.587500X-0.150000X-0.587500X0*%
%ADD50R,1.000000X0.600000*%
%ADD51R,0.420000X0.700000*%
%ADD52R,1.560000X0.650000*%
%ADD53RoundRect,0.200000X-0.275000X0.200000X-0.275000X-0.200000X0.275000X-0.200000X0.275000X0.200000X0*%
%ADD54RoundRect,0.225000X-0.250000X0.225000X-0.250000X-0.225000X0.250000X-0.225000X0.250000X0.225000X0*%
%ADD55R,0.300000X2.600000*%
%ADD56R,0.800000X0.900000*%
%ADD57RoundRect,0.135000X-0.135000X-0.185000X0.135000X-0.185000X0.135000X0.185000X-0.135000X0.185000X0*%
%ADD58RoundRect,0.218750X-0.218750X-0.256250X0.218750X-0.256250X0.218750X0.256250X-0.218750X0.256250X0*%
%ADD59R,2.350000X5.100000*%
%ADD60RoundRect,0.250000X-1.025000X0.787500X-1.025000X-0.787500X1.025000X-0.787500X1.025000X0.787500X0*%
%ADD61R,2.500000X2.300000*%
%ADD62RoundRect,0.250000X-0.550000X1.500000X-0.550000X-1.500000X0.550000X-1.500000X0.550000X1.500000X0*%
%ADD63RoundRect,0.150000X-0.150000X0.587500X-0.150000X-0.587500X0.150000X-0.587500X0.150000X0.587500X0*%
%ADD64RoundRect,0.200000X0.200000X0.275000X-0.200000X0.275000X-0.200000X-0.275000X0.200000X-0.275000X0*%
%ADD65R,0.610000X2.000000*%
%ADD66R,2.680000X3.600000*%
G04 APERTURE END LIST*
D10*
X81000000Y-116500000D02*
X170500000Y-116500000D01*
X98499997Y-36500003D02*
G75*
G02*
X97500000Y-35500000I3J1000000D01*
G01*
X97500000Y-35500000D02*
X97500000Y-32500000D01*
X96500003Y-31499997D02*
G75*
G02*
X97500000Y-32500000I-3J-1000000D01*
G01*
X113500000Y-36500000D02*
X98500000Y-36500000D01*
X81000000Y-116500000D02*
G75*
G02*
X78005236Y-113500005I5236J2999995D01*
G01*
X78000000Y-34500000D02*
X78005236Y-113500005D01*
X115499997Y-31500003D02*
G75*
G03*
X114500000Y-32500000I0J-999997D01*
G01*
X96500000Y-31500000D02*
X81000000Y-31500000D01*
X173999998Y-34999998D02*
G75*
G03*
X170500000Y-31500000I-3499998J0D01*
G01*
X114500000Y-32500000D02*
X114500000Y-35500000D01*
X170500000Y-31500000D02*
X115500000Y-31500000D01*
X174000000Y-35000000D02*
X174000000Y-113000000D01*
X174000002Y-113000002D02*
G75*
G02*
X170500000Y-116500000I-3500000J2D01*
G01*
D11*
X113500000Y-36500000D02*
G75*
G03*
X114500000Y-35500000I0J1000000D01*
G01*
D10*
X78000000Y-34500000D02*
G75*
G02*
X81000000Y-31500000I3000000J0D01*
G01*
D12*
X168500000Y-39738100D03*
X168500000Y-38718100D03*
X165600035Y-40797000D03*
X165600035Y-39777000D03*
D13*
X136400000Y-78225000D03*
X136400000Y-76575000D03*
D14*
X136149200Y-39938400D03*
X136149200Y-41838400D03*
X138149200Y-40888400D03*
D15*
X137741200Y-38150000D03*
X137741200Y-37200000D03*
X137741200Y-36250000D03*
X135541200Y-36250000D03*
X135541200Y-37200000D03*
X135541200Y-38150000D03*
D16*
X138705000Y-69000000D03*
X137435000Y-69000000D03*
X136165000Y-69000000D03*
X134895000Y-69000000D03*
X134895000Y-74400000D03*
X136165000Y-74400000D03*
X137435000Y-74400000D03*
X138705000Y-74400000D03*
D13*
X134800000Y-78225000D03*
X134800000Y-76575000D03*
D12*
X98800035Y-113609990D03*
X98800035Y-112589990D03*
D17*
X129800035Y-100600000D03*
D18*
X126850035Y-112000000D03*
X134250035Y-114000000D03*
D19*
X134250035Y-104600000D03*
D20*
X146100035Y-86799990D03*
X146100035Y-84699990D03*
D21*
X157225000Y-64662500D03*
X157875000Y-64662500D03*
X158525000Y-64662500D03*
X159175000Y-64662500D03*
X159175000Y-58937500D03*
X158525000Y-58937500D03*
X157875000Y-58937500D03*
X157225000Y-58937500D03*
D22*
X114050000Y-71125000D03*
X114050000Y-69225000D03*
D23*
X114200035Y-87474990D03*
X114200035Y-85924990D03*
D24*
X118500000Y-77387500D03*
X118500000Y-79212500D03*
D25*
X113700000Y-82300000D03*
X113700000Y-76900000D03*
D26*
X166905000Y-57227000D03*
X165945000Y-57227000D03*
D14*
X92355000Y-41655000D03*
X92355000Y-39755000D03*
X90355000Y-40705000D03*
D27*
X80555000Y-42255000D03*
X80555000Y-39755000D03*
D28*
X171084400Y-47408100D03*
X171084400Y-46448100D03*
D29*
X124100000Y-90125000D03*
X124100000Y-89475000D03*
X124100000Y-88825000D03*
X124100000Y-88175000D03*
X124100000Y-87525000D03*
X124100000Y-86875000D03*
X124100000Y-86225000D03*
X124100000Y-85575000D03*
X118300000Y-85575000D03*
X118300000Y-86225000D03*
X118300000Y-86875000D03*
X118300000Y-87525000D03*
X118300000Y-88175000D03*
X118300000Y-88825000D03*
X118300000Y-89475000D03*
X118300000Y-90125000D03*
D30*
X166615000Y-54767000D03*
X164715000Y-54767000D03*
D31*
X166659400Y-44748100D03*
X168359400Y-44748100D03*
X168359400Y-46108100D03*
X166659400Y-46108100D03*
D32*
X165604400Y-47990600D03*
X166874400Y-47990600D03*
X168144400Y-47990600D03*
X169414400Y-47990600D03*
X169414400Y-42865600D03*
X168144400Y-42865600D03*
X166874400Y-42865600D03*
X165604400Y-42865600D03*
D33*
X137640035Y-89974990D03*
X139560035Y-89974990D03*
X138600035Y-87874990D03*
D34*
X169600000Y-39818100D03*
X169600000Y-40838100D03*
D35*
X148250035Y-78549990D03*
X148250035Y-80449990D03*
D36*
X119250000Y-75337500D03*
X119250000Y-73512500D03*
D37*
X167350035Y-67499990D03*
X169250035Y-67499990D03*
D38*
X126175035Y-102350000D03*
X124625035Y-102350000D03*
D39*
X133125035Y-100350000D03*
X134675035Y-100350000D03*
D40*
X115287500Y-73300000D03*
X117112500Y-73300000D03*
D41*
X157040035Y-72599990D03*
X158000035Y-72599990D03*
D13*
X138000000Y-78225000D03*
X138000000Y-76575000D03*
D26*
X167964400Y-40828100D03*
X167004400Y-40828100D03*
D42*
X158475035Y-66699990D03*
X160125035Y-66699990D03*
D43*
X159000035Y-95504990D03*
X159000035Y-90594990D03*
D34*
X164000035Y-59589990D03*
X164000035Y-60609990D03*
D44*
X83180000Y-39800000D03*
X83180000Y-41070000D03*
X83180000Y-42340000D03*
X83180000Y-43610000D03*
X88130000Y-43610000D03*
X88130000Y-42340000D03*
X88130000Y-41070000D03*
X88130000Y-39800000D03*
D39*
X124325000Y-74550000D03*
X125875000Y-74550000D03*
D30*
X166615000Y-52667000D03*
X164715000Y-52667000D03*
D37*
X168315000Y-52667000D03*
X170215000Y-52667000D03*
D45*
X88440000Y-47255000D03*
X88440000Y-69225000D03*
D46*
X88440000Y-58240000D03*
D35*
X157175000Y-47847000D03*
X157175000Y-49747000D03*
D13*
X126200000Y-86175000D03*
X126200000Y-84525000D03*
D47*
X170750000Y-39848100D03*
X170750000Y-40808100D03*
D48*
X143937535Y-86699990D03*
X143937535Y-84799990D03*
X142062535Y-85749990D03*
D14*
X165525000Y-60677000D03*
X167525000Y-59727000D03*
X165525000Y-58777000D03*
D49*
X150300035Y-67437490D03*
X152200035Y-67437490D03*
X151250035Y-65562490D03*
D34*
X104400035Y-112689990D03*
X104400035Y-113709990D03*
D50*
X167790000Y-64957000D03*
D51*
X167550000Y-65727000D03*
D50*
X166660000Y-64247000D03*
D51*
X168200000Y-65727000D03*
D50*
X167790000Y-64247000D03*
D51*
X166900000Y-65727000D03*
X166250000Y-65727000D03*
D50*
X166660000Y-64957000D03*
D51*
X168200000Y-62727000D03*
X167550000Y-62727000D03*
X166900000Y-62727000D03*
X166250000Y-62727000D03*
D52*
X119200000Y-71050000D03*
X119200000Y-70100000D03*
X119200000Y-69150000D03*
X116500000Y-69150000D03*
X116500000Y-71050000D03*
D37*
X168315000Y-50567000D03*
X170215000Y-50567000D03*
D53*
X153500000Y-61300000D03*
X153500000Y-62950000D03*
D13*
X135500035Y-34624990D03*
X135500035Y-32974990D03*
D53*
X153400000Y-57475000D03*
X153400000Y-59125000D03*
D54*
X167000000Y-37925000D03*
X167000000Y-39475000D03*
D28*
X165684400Y-38708100D03*
X165684400Y-37748100D03*
D53*
X161400000Y-63475000D03*
X161400000Y-65125000D03*
D35*
X148250035Y-84799990D03*
X148250035Y-86699990D03*
D55*
X93600035Y-106219990D03*
X93100035Y-106219990D03*
X92600035Y-106219990D03*
X92100035Y-106219990D03*
X91600035Y-106219990D03*
X91100035Y-106219990D03*
X90600035Y-106219990D03*
X90100035Y-106219990D03*
X89600035Y-106219990D03*
X89100035Y-106219990D03*
X88600035Y-106219990D03*
X88100035Y-106219990D03*
X87600035Y-106219990D03*
X87100035Y-106219990D03*
X86600035Y-106219990D03*
X86100035Y-106219990D03*
X85600035Y-106219990D03*
X85100035Y-106219990D03*
X84600035Y-106219990D03*
D48*
X143937535Y-80449990D03*
X143937535Y-78549990D03*
X142062535Y-79499990D03*
D53*
X151600000Y-57475000D03*
X151600000Y-59125000D03*
D56*
X158950000Y-68800000D03*
X157050000Y-68800000D03*
X158000000Y-70800000D03*
D57*
X147990035Y-83499990D03*
X149010035Y-83499990D03*
D41*
X88140000Y-37510000D03*
X89100000Y-37510000D03*
D35*
X121600000Y-69225000D03*
X121600000Y-71125000D03*
D58*
X98812535Y-115199990D03*
X100387535Y-115199990D03*
D43*
X169400035Y-103104990D03*
X169400035Y-98194990D03*
D59*
X163284400Y-40528100D03*
X159134400Y-40528100D03*
D55*
X118800035Y-106219990D03*
X118300035Y-106219990D03*
X117800035Y-106219990D03*
X117300035Y-106219990D03*
X116800035Y-106219990D03*
X116300035Y-106219990D03*
X115800035Y-106219990D03*
X115300035Y-106219990D03*
X114800035Y-106219990D03*
X114300035Y-106219990D03*
X113800035Y-106219990D03*
X113300035Y-106219990D03*
X112800035Y-106219990D03*
X112300035Y-106219990D03*
X111800035Y-106219990D03*
X111300035Y-106219990D03*
X110800035Y-106219990D03*
X110300035Y-106219990D03*
X109800035Y-106219990D03*
D20*
X146100035Y-80549990D03*
X146100035Y-78449990D03*
D13*
X148000000Y-59125000D03*
X148000000Y-57475000D03*
D22*
X116100035Y-87849990D03*
X116100035Y-85949990D03*
D53*
X149800000Y-57475000D03*
X149800000Y-59125000D03*
D60*
X141500000Y-40887500D03*
X141500000Y-47112500D03*
D35*
X154975000Y-47847000D03*
X154975000Y-49747000D03*
D37*
X168250000Y-56900000D03*
X170150000Y-56900000D03*
D42*
X131475035Y-97799990D03*
X133125035Y-97799990D03*
D61*
X169400035Y-92999990D03*
X165100035Y-92999990D03*
D39*
X118675000Y-83850000D03*
X120225000Y-83850000D03*
D41*
X140870035Y-89949990D03*
X141830035Y-89949990D03*
D36*
X122400035Y-102412490D03*
X122400035Y-100587490D03*
D26*
X138600035Y-86399990D03*
X137640035Y-86399990D03*
D57*
X147990035Y-77249990D03*
X149010035Y-77249990D03*
D13*
X137700035Y-34624990D03*
X137700035Y-32974990D03*
D30*
X166615000Y-50567000D03*
X164715000Y-50567000D03*
D37*
X118500000Y-81850000D03*
X120400000Y-81850000D03*
D34*
X171084400Y-43218100D03*
X171084400Y-44238100D03*
D62*
X113700035Y-91099990D03*
X113700035Y-96499990D03*
D37*
X159275000Y-47727000D03*
X161175000Y-47727000D03*
D63*
X126050000Y-79362500D03*
X124150000Y-79362500D03*
X125100000Y-81237500D03*
D37*
X168315000Y-54767000D03*
X170215000Y-54767000D03*
D64*
X125925000Y-76300000D03*
X124275000Y-76300000D03*
D47*
X160500000Y-70100000D03*
X160500000Y-71060000D03*
D42*
X124575035Y-100600000D03*
X126225035Y-100600000D03*
D58*
X102812535Y-115199990D03*
X104387535Y-115199990D03*
D37*
X159275000Y-45427000D03*
X161175000Y-45427000D03*
D65*
X113000000Y-44200000D03*
X112000000Y-44200000D03*
X111000000Y-44200000D03*
X110000000Y-44200000D03*
X109000000Y-44200000D03*
X108000000Y-44200000D03*
X107000000Y-44200000D03*
X106000000Y-44200000D03*
X105000000Y-44200000D03*
X104000000Y-44200000D03*
X103000000Y-44200000D03*
X102000000Y-44200000D03*
X101000000Y-44200000D03*
X100000000Y-44200000D03*
X99000000Y-44200000D03*
D66*
X115990000Y-41400000D03*
X96010000Y-41400000D03*
M02*
