G04 #@! TF.GenerationSoftware,KiCad,Pcbnew,(5.99.0-11120-g1d6ad4a52a)*
G04 #@! TF.CreationDate,2021-08-25T17:06:27+02:00*
G04 #@! TF.ProjectId,CarPiPowerHat,43617250-6950-46f7-9765-724861742e6b,0.2*
G04 #@! TF.SameCoordinates,Original*
G04 #@! TF.FileFunction,Soldermask,Top*
G04 #@! TF.FilePolarity,Negative*
%FSLAX46Y46*%
G04 Gerber Fmt 4.6, Leading zero omitted, Abs format (unit mm)*
G04 Created by KiCad (PCBNEW (5.99.0-11120-g1d6ad4a52a)) date 2021-08-25 17:06:27*
%MOMM*%
%LPD*%
G01*
G04 APERTURE LIST*
G04 Aperture macros list*
%AMRoundRect*
0 Rectangle with rounded corners*
0 $1 Rounding radius*
0 $2 $3 $4 $5 $6 $7 $8 $9 X,Y pos of 4 corners*
0 Add a 4 corners polygon primitive as box body*
4,1,4,$2,$3,$4,$5,$6,$7,$8,$9,$2,$3,0*
0 Add four circle primitives for the rounded corners*
1,1,$1+$1,$2,$3*
1,1,$1+$1,$4,$5*
1,1,$1+$1,$6,$7*
1,1,$1+$1,$8,$9*
0 Add four rect primitives between the rounded corners*
20,1,$1+$1,$2,$3,$4,$5,0*
20,1,$1+$1,$4,$5,$6,$7,0*
20,1,$1+$1,$6,$7,$8,$9,0*
20,1,$1+$1,$8,$9,$2,$3,0*%
%AMFreePoly0*
4,1,17,1.395000,0.765000,0.855000,0.765000,0.855000,0.535000,1.395000,0.535000,1.395000,0.115000,0.855000,0.115000,0.855000,-0.115000,1.395000,-0.115000,1.395000,-0.535000,0.855000,-0.535000,0.855000,-0.765000,1.395000,-0.765000,1.395000,-1.185000,-0.855000,-1.185000,-0.855000,1.185000,1.395000,1.185000,1.395000,0.765000,1.395000,0.765000,$1*%
%AMFreePoly1*
4,1,22,0.500000,-0.750000,0.000000,-0.750000,0.000000,-0.745033,-0.079941,-0.743568,-0.215256,-0.701293,-0.333266,-0.622738,-0.424486,-0.514219,-0.481581,-0.384460,-0.499164,-0.250000,-0.500000,-0.250000,-0.500000,0.250000,-0.499164,0.250000,-0.499963,0.256109,-0.478152,0.396186,-0.417904,0.524511,-0.324060,0.630769,-0.204165,0.706417,-0.067858,0.745374,0.000000,0.744959,0.000000,0.750000,
0.500000,0.750000,0.500000,-0.750000,0.500000,-0.750000,$1*%
%AMFreePoly2*
4,1,20,0.000000,0.744959,0.073905,0.744508,0.209726,0.703889,0.328688,0.626782,0.421226,0.519385,0.479903,0.390333,0.500000,0.250000,0.500000,-0.250000,0.499851,-0.262216,0.476331,-0.402017,0.414519,-0.529596,0.319384,-0.634700,0.198574,-0.708877,0.061801,-0.746166,0.000000,-0.745033,0.000000,-0.750000,-0.500000,-0.750000,-0.500000,0.750000,0.000000,0.750000,0.000000,0.744959,
0.000000,0.744959,$1*%
G04 Aperture macros list end*
G04 #@! TA.AperFunction,Profile*
%ADD10C,0.100000*%
G04 #@! TD*
G04 #@! TA.AperFunction,Profile*
%ADD11C,0.150000*%
G04 #@! TD*
%ADD12C,6.100000*%
%ADD13RoundRect,0.135000X0.185000X-0.135000X0.185000X0.135000X-0.185000X0.135000X-0.185000X-0.135000X0*%
%ADD14RoundRect,0.200000X0.275000X-0.200000X0.275000X0.200000X-0.275000X0.200000X-0.275000X-0.200000X0*%
%ADD15R,0.900000X0.800000*%
%ADD16R,1.060000X0.650000*%
%ADD17R,0.600000X1.550000*%
%ADD18C,1.700000*%
%ADD19R,2.800000X2.600000*%
%ADD20R,2.800000X2.200000*%
%ADD21R,2.800000X2.800000*%
%ADD22R,0.450000X0.600000*%
%ADD23RoundRect,0.100000X0.100000X-0.637500X0.100000X0.637500X-0.100000X0.637500X-0.100000X-0.637500X0*%
%ADD24RoundRect,0.250000X0.475000X-0.250000X0.475000X0.250000X-0.475000X0.250000X-0.475000X-0.250000X0*%
%ADD25RoundRect,0.225000X0.250000X-0.225000X0.250000X0.225000X-0.250000X0.225000X-0.250000X-0.225000X0*%
%ADD26RoundRect,0.250000X-0.450000X0.262500X-0.450000X-0.262500X0.450000X-0.262500X0.450000X0.262500X0*%
%ADD27R,0.850000X0.850000*%
%ADD28O,0.850000X0.850000*%
%ADD29RoundRect,0.250000X0.550000X-1.500000X0.550000X1.500000X-0.550000X1.500000X-0.550000X-1.500000X0*%
%ADD30RoundRect,0.140000X0.140000X0.170000X-0.140000X0.170000X-0.140000X-0.170000X0.140000X-0.170000X0*%
%ADD31R,1.800000X1.000000*%
%ADD32RoundRect,0.140000X0.170000X-0.140000X0.170000X0.140000X-0.170000X0.140000X-0.170000X-0.140000X0*%
%ADD33R,1.000000X0.400000*%
%ADD34RoundRect,0.250000X0.250000X0.475000X-0.250000X0.475000X-0.250000X-0.475000X0.250000X-0.475000X0*%
%ADD35R,3.400000X2.710000*%
%ADD36RoundRect,0.150000X0.150000X-0.737500X0.150000X0.737500X-0.150000X0.737500X-0.150000X-0.737500X0*%
%ADD37R,0.650000X1.100000*%
%ADD38RoundRect,0.135000X-0.185000X0.135000X-0.185000X-0.135000X0.185000X-0.135000X0.185000X0.135000X0*%
%ADD39RoundRect,0.250000X-0.475000X0.250000X-0.475000X-0.250000X0.475000X-0.250000X0.475000X0.250000X0*%
%ADD40RoundRect,0.250000X0.450000X-0.262500X0.450000X0.262500X-0.450000X0.262500X-0.450000X-0.262500X0*%
%ADD41RoundRect,0.250000X-0.250000X-0.475000X0.250000X-0.475000X0.250000X0.475000X-0.250000X0.475000X0*%
%ADD42RoundRect,0.225000X0.225000X0.250000X-0.225000X0.250000X-0.225000X-0.250000X0.225000X-0.250000X0*%
%ADD43RoundRect,0.225000X-0.225000X-0.250000X0.225000X-0.250000X0.225000X0.250000X-0.225000X0.250000X0*%
%ADD44RoundRect,0.250000X-0.262500X-0.450000X0.262500X-0.450000X0.262500X0.450000X-0.262500X0.450000X0*%
%ADD45RoundRect,0.140000X-0.140000X-0.170000X0.140000X-0.170000X0.140000X0.170000X-0.140000X0.170000X0*%
%ADD46RoundRect,0.200000X-0.200000X-0.275000X0.200000X-0.275000X0.200000X0.275000X-0.200000X0.275000X0*%
%ADD47R,3.150000X1.960000*%
%ADD48RoundRect,0.150000X-0.825000X-0.150000X0.825000X-0.150000X0.825000X0.150000X-0.825000X0.150000X0*%
%ADD49R,5.080000X1.270000*%
%ADD50R,3.960000X3.960000*%
%ADD51RoundRect,0.140000X-0.170000X0.140000X-0.170000X-0.140000X0.170000X-0.140000X0.170000X0.140000X0*%
%ADD52RoundRect,0.150000X0.587500X0.150000X-0.587500X0.150000X-0.587500X-0.150000X0.587500X-0.150000X0*%
%ADD53RoundRect,0.150000X0.150000X-0.587500X0.150000X0.587500X-0.150000X0.587500X-0.150000X-0.587500X0*%
%ADD54R,0.420000X0.700000*%
%ADD55FreePoly0,270.000000*%
%ADD56R,1.560000X0.650000*%
%ADD57RoundRect,0.200000X-0.275000X0.200000X-0.275000X-0.200000X0.275000X-0.200000X0.275000X0.200000X0*%
%ADD58RoundRect,0.225000X-0.250000X0.225000X-0.250000X-0.225000X0.250000X-0.225000X0.250000X0.225000X0*%
%ADD59R,0.300000X2.600000*%
%ADD60O,1.500000X3.300000*%
%ADD61O,1.500000X2.300000*%
%ADD62R,0.800000X0.900000*%
%ADD63RoundRect,0.135000X-0.135000X-0.185000X0.135000X-0.185000X0.135000X0.185000X-0.135000X0.185000X0*%
%ADD64RoundRect,0.218750X-0.218750X-0.256250X0.218750X-0.256250X0.218750X0.256250X-0.218750X0.256250X0*%
%ADD65R,2.350000X5.100000*%
%ADD66RoundRect,0.250000X-1.025000X0.787500X-1.025000X-0.787500X1.025000X-0.787500X1.025000X0.787500X0*%
%ADD67C,3.000000*%
%ADD68RoundRect,0.250001X1.099999X1.599999X-1.099999X1.599999X-1.099999X-1.599999X1.099999X-1.599999X0*%
%ADD69O,2.700000X3.700000*%
%ADD70R,2.500000X2.300000*%
%ADD71RoundRect,0.250000X-0.550000X1.500000X-0.550000X-1.500000X0.550000X-1.500000X0.550000X1.500000X0*%
%ADD72RoundRect,0.150000X-0.150000X0.587500X-0.150000X-0.587500X0.150000X-0.587500X0.150000X0.587500X0*%
%ADD73RoundRect,0.200000X0.200000X0.275000X-0.200000X0.275000X-0.200000X-0.275000X0.200000X-0.275000X0*%
%ADD74R,1.600000X1.600000*%
%ADD75C,1.600000*%
%ADD76C,2.150000*%
%ADD77FreePoly1,0.000000*%
%ADD78FreePoly2,0.000000*%
%ADD79R,0.610000X2.000000*%
%ADD80R,2.680000X3.600000*%
%ADD81R,1.700000X1.700000*%
%ADD82O,1.700000X1.700000*%
%ADD83RoundRect,0.250000X0.600000X0.750000X-0.600000X0.750000X-0.600000X-0.750000X0.600000X-0.750000X0*%
%ADD84O,1.700000X2.000000*%
G04 APERTURE END LIST*
D10*
X81000000Y-116500000D02*
X170500000Y-116500000D01*
X98499997Y-36500003D02*
G75*
G02*
X97500000Y-35500000I3J1000000D01*
G01*
X97500000Y-35500000D02*
X97500000Y-32500000D01*
X96500003Y-31499997D02*
G75*
G02*
X97500000Y-32500000I-3J-1000000D01*
G01*
X113500000Y-36500000D02*
X98500000Y-36500000D01*
X81000000Y-116500000D02*
G75*
G02*
X78005236Y-113500005I5236J2999995D01*
G01*
X78000000Y-34500000D02*
X78005236Y-113500005D01*
X115499997Y-31500003D02*
G75*
G03*
X114500000Y-32500000I0J-999997D01*
G01*
X96500000Y-31500000D02*
X81000000Y-31500000D01*
X173999998Y-34999998D02*
G75*
G03*
X170500000Y-31500000I-3499998J0D01*
G01*
X114500000Y-32500000D02*
X114500000Y-35500000D01*
X170500000Y-31500000D02*
X115500000Y-31500000D01*
X174000000Y-35000000D02*
X174000000Y-113000000D01*
X174000002Y-113000002D02*
G75*
G02*
X170500000Y-116500000I-3500000J2D01*
G01*
D11*
X113500000Y-36500000D02*
G75*
G03*
X114500000Y-35500000I0J1000000D01*
G01*
D10*
X78000000Y-34500000D02*
G75*
G02*
X81000000Y-31500000I3000000J0D01*
G01*
D12*
X130500000Y-35000000D03*
X130500000Y-93000000D03*
X81500000Y-35000000D03*
X81500000Y-93000000D03*
D13*
X168500000Y-39738100D03*
X168500000Y-38718100D03*
X165600035Y-40797000D03*
X165600035Y-39777000D03*
D14*
X136400000Y-78225000D03*
X136400000Y-76575000D03*
D15*
X136149200Y-39938400D03*
X136149200Y-41838400D03*
X138149200Y-40888400D03*
D16*
X137741200Y-38150000D03*
X137741200Y-37200000D03*
X137741200Y-36250000D03*
X135541200Y-36250000D03*
X135541200Y-37200000D03*
X135541200Y-38150000D03*
D17*
X138705000Y-69000000D03*
X137435000Y-69000000D03*
X136165000Y-69000000D03*
X134895000Y-69000000D03*
X134895000Y-74400000D03*
X136165000Y-74400000D03*
X137435000Y-74400000D03*
X138705000Y-74400000D03*
D14*
X134800000Y-78225000D03*
X134800000Y-76575000D03*
D13*
X98800035Y-113609990D03*
X98800035Y-112589990D03*
D18*
X130550035Y-112900000D03*
X130550035Y-105900000D03*
D19*
X129800035Y-100600000D03*
D20*
X126850035Y-112000000D03*
X134250035Y-114000000D03*
D21*
X134250035Y-104600000D03*
D22*
X146100035Y-86799990D03*
X146100035Y-84699990D03*
D23*
X157225000Y-64662500D03*
X157875000Y-64662500D03*
X158525000Y-64662500D03*
X159175000Y-64662500D03*
X159175000Y-58937500D03*
X158525000Y-58937500D03*
X157875000Y-58937500D03*
X157225000Y-58937500D03*
D24*
X114050000Y-71125000D03*
X114050000Y-69225000D03*
D25*
X114200035Y-87474990D03*
X114200035Y-85924990D03*
D26*
X118500000Y-77387500D03*
X118500000Y-79212500D03*
D27*
X80990000Y-99510000D03*
D28*
X80990000Y-100510000D03*
X80990000Y-101510000D03*
X80990000Y-102510000D03*
D29*
X113700000Y-82300000D03*
X113700000Y-76900000D03*
D30*
X166905000Y-57227000D03*
X165945000Y-57227000D03*
D15*
X92355000Y-41655000D03*
X92355000Y-39755000D03*
X90355000Y-40705000D03*
D31*
X80555000Y-42255000D03*
X80555000Y-39755000D03*
D32*
X171084400Y-47408100D03*
X171084400Y-46448100D03*
D33*
X124100000Y-90125000D03*
X124100000Y-89475000D03*
X124100000Y-88825000D03*
X124100000Y-88175000D03*
X124100000Y-87525000D03*
X124100000Y-86875000D03*
X124100000Y-86225000D03*
X124100000Y-85575000D03*
X118300000Y-85575000D03*
X118300000Y-86225000D03*
X118300000Y-86875000D03*
X118300000Y-87525000D03*
X118300000Y-88175000D03*
X118300000Y-88825000D03*
X118300000Y-89475000D03*
X118300000Y-90125000D03*
D34*
X166615000Y-54767000D03*
X164715000Y-54767000D03*
D35*
X167509400Y-45428100D03*
D36*
X165604400Y-47990600D03*
X166874400Y-47990600D03*
X168144400Y-47990600D03*
X169414400Y-47990600D03*
X169414400Y-42865600D03*
X168144400Y-42865600D03*
X166874400Y-42865600D03*
X165604400Y-42865600D03*
D37*
X137640035Y-89974990D03*
X139560035Y-89974990D03*
X138600035Y-87874990D03*
D38*
X169600000Y-39818100D03*
X169600000Y-40838100D03*
D39*
X148250035Y-78549990D03*
X148250035Y-80449990D03*
D40*
X119250000Y-75337500D03*
X119250000Y-73512500D03*
D41*
X167350035Y-67499990D03*
X169250035Y-67499990D03*
D42*
X126175035Y-102350000D03*
X124625035Y-102350000D03*
D43*
X133125035Y-100350000D03*
X134675035Y-100350000D03*
D44*
X115287500Y-73300000D03*
X117112500Y-73300000D03*
D45*
X157040035Y-72599990D03*
X158000035Y-72599990D03*
D14*
X138000000Y-78225000D03*
X138000000Y-76575000D03*
D30*
X167964400Y-40828100D03*
X167004400Y-40828100D03*
D46*
X158475035Y-66699990D03*
X160125035Y-66699990D03*
D47*
X159000035Y-95504990D03*
X159000035Y-90594990D03*
D38*
X164000035Y-59589990D03*
X164000035Y-60609990D03*
D48*
X83180000Y-39800000D03*
X83180000Y-41070000D03*
X83180000Y-42340000D03*
X83180000Y-43610000D03*
X88130000Y-43610000D03*
X88130000Y-42340000D03*
X88130000Y-41070000D03*
X88130000Y-39800000D03*
D43*
X124325000Y-74550000D03*
X125875000Y-74550000D03*
D34*
X166615000Y-52667000D03*
X164715000Y-52667000D03*
D41*
X168315000Y-52667000D03*
X170215000Y-52667000D03*
D49*
X88440000Y-47255000D03*
X88440000Y-69225000D03*
D50*
X88440000Y-58240000D03*
D39*
X157175000Y-47847000D03*
X157175000Y-49747000D03*
D14*
X126200000Y-86175000D03*
X126200000Y-84525000D03*
D51*
X170750000Y-39848100D03*
X170750000Y-40808100D03*
D52*
X143937535Y-86699990D03*
X143937535Y-84799990D03*
X142062535Y-85749990D03*
D15*
X165525000Y-60677000D03*
X167525000Y-59727000D03*
X165525000Y-58777000D03*
D53*
X150300035Y-67437490D03*
X152200035Y-67437490D03*
X151250035Y-65562490D03*
D38*
X104400035Y-112689990D03*
X104400035Y-113709990D03*
D54*
X168200000Y-62727000D03*
X167550000Y-62727000D03*
X166900000Y-62727000D03*
X166250000Y-62727000D03*
D55*
X167225000Y-64682000D03*
D56*
X119200000Y-71050000D03*
X119200000Y-70100000D03*
X119200000Y-69150000D03*
X116500000Y-69150000D03*
X116500000Y-71050000D03*
D41*
X168315000Y-50567000D03*
X170215000Y-50567000D03*
D57*
X153500000Y-61300000D03*
X153500000Y-62950000D03*
D14*
X135500035Y-34624990D03*
X135500035Y-32974990D03*
D12*
X170500000Y-35000000D03*
D57*
X153400000Y-57475000D03*
X153400000Y-59125000D03*
D58*
X167000000Y-37925000D03*
X167000000Y-39475000D03*
D32*
X165684400Y-38708100D03*
X165684400Y-37748100D03*
D57*
X161400000Y-63475000D03*
X161400000Y-65125000D03*
D39*
X148250035Y-84799990D03*
X148250035Y-86699990D03*
D59*
X93600035Y-106219990D03*
X93100035Y-106219990D03*
X92600035Y-106219990D03*
X92100035Y-106219990D03*
X91600035Y-106219990D03*
X91100035Y-106219990D03*
X90600035Y-106219990D03*
X90100035Y-106219990D03*
X89600035Y-106219990D03*
X89100035Y-106219990D03*
X88600035Y-106219990D03*
X88100035Y-106219990D03*
X87600035Y-106219990D03*
X87100035Y-106219990D03*
X86600035Y-106219990D03*
X86100035Y-106219990D03*
X85600035Y-106219990D03*
X85100035Y-106219990D03*
X84600035Y-106219990D03*
D60*
X96350035Y-106949990D03*
X81850035Y-106949990D03*
D61*
X81850035Y-112909990D03*
X96350035Y-112909990D03*
D52*
X143937535Y-80449990D03*
X143937535Y-78549990D03*
X142062535Y-79499990D03*
D57*
X151600000Y-57475000D03*
X151600000Y-59125000D03*
D62*
X158950000Y-68800000D03*
X157050000Y-68800000D03*
X158000000Y-70800000D03*
D63*
X147990035Y-83499990D03*
X149010035Y-83499990D03*
D45*
X88140000Y-37510000D03*
X89100000Y-37510000D03*
D39*
X121600000Y-69225000D03*
X121600000Y-71125000D03*
D64*
X98812535Y-115199990D03*
X100387535Y-115199990D03*
D47*
X169400035Y-103104990D03*
X169400035Y-98194990D03*
D65*
X163284400Y-40528100D03*
X159134400Y-40528100D03*
D59*
X118800035Y-106219990D03*
X118300035Y-106219990D03*
X117800035Y-106219990D03*
X117300035Y-106219990D03*
X116800035Y-106219990D03*
X116300035Y-106219990D03*
X115800035Y-106219990D03*
X115300035Y-106219990D03*
X114800035Y-106219990D03*
X114300035Y-106219990D03*
X113800035Y-106219990D03*
X113300035Y-106219990D03*
X112800035Y-106219990D03*
X112300035Y-106219990D03*
X111800035Y-106219990D03*
X111300035Y-106219990D03*
X110800035Y-106219990D03*
X110300035Y-106219990D03*
X109800035Y-106219990D03*
D60*
X121550035Y-106949990D03*
X107050035Y-106949990D03*
D61*
X107050035Y-112909990D03*
X121550035Y-112909990D03*
D22*
X146100035Y-80549990D03*
X146100035Y-78449990D03*
D14*
X148000000Y-59125000D03*
X148000000Y-57475000D03*
D24*
X116100035Y-87849990D03*
X116100035Y-85949990D03*
D57*
X149800000Y-57475000D03*
X149800000Y-59125000D03*
D66*
X141500000Y-40887500D03*
X141500000Y-47112500D03*
D39*
X154975000Y-47847000D03*
X154975000Y-49747000D03*
D41*
X168250000Y-56900000D03*
X170150000Y-56900000D03*
D67*
X154800000Y-112274990D03*
X163200000Y-112274990D03*
D68*
X163200000Y-104974990D03*
D69*
X159000000Y-104974990D03*
X154800000Y-104974990D03*
X163200000Y-99474990D03*
X159000000Y-99474990D03*
X154800000Y-99474990D03*
D46*
X131475035Y-97799990D03*
X133125035Y-97799990D03*
D70*
X169400035Y-92999990D03*
X165100035Y-92999990D03*
D43*
X118675000Y-83850000D03*
X120225000Y-83850000D03*
D45*
X140870035Y-89949990D03*
X141830035Y-89949990D03*
D12*
X170500000Y-113000000D03*
D40*
X122400035Y-102412490D03*
X122400035Y-100587490D03*
D30*
X138600035Y-86399990D03*
X137640035Y-86399990D03*
D63*
X147990035Y-77249990D03*
X149010035Y-77249990D03*
D14*
X137700035Y-34624990D03*
X137700035Y-32974990D03*
D34*
X166615000Y-50567000D03*
X164715000Y-50567000D03*
D41*
X118500000Y-81850000D03*
X120400000Y-81850000D03*
D38*
X171084400Y-43218100D03*
X171084400Y-44238100D03*
D71*
X113700035Y-91099990D03*
X113700035Y-96499990D03*
D41*
X159275000Y-47727000D03*
X161175000Y-47727000D03*
D72*
X126050000Y-79362500D03*
X124150000Y-79362500D03*
X125100000Y-81237500D03*
D41*
X168315000Y-54767000D03*
X170215000Y-54767000D03*
D73*
X125925000Y-76300000D03*
X124275000Y-76300000D03*
D74*
X143000035Y-106559990D03*
D75*
X143000035Y-104559990D03*
X143000035Y-102559990D03*
X143000035Y-100559990D03*
D76*
X145720035Y-107289990D03*
X140280035Y-107289990D03*
X145720035Y-100289990D03*
X140280035Y-100289990D03*
D51*
X160500000Y-70100000D03*
X160500000Y-71060000D03*
D46*
X124575035Y-100600000D03*
X126225035Y-100600000D03*
D64*
X102812535Y-115199990D03*
X104387535Y-115199990D03*
D41*
X159275000Y-45427000D03*
X161175000Y-45427000D03*
D77*
X135850000Y-66500000D03*
D78*
X137150000Y-66500000D03*
D79*
X113000000Y-44200000D03*
X112000000Y-44200000D03*
X111000000Y-44200000D03*
X110000000Y-44200000D03*
X109000000Y-44200000D03*
X108000000Y-44200000D03*
X107000000Y-44200000D03*
X106000000Y-44200000D03*
X105000000Y-44200000D03*
X104000000Y-44200000D03*
X103000000Y-44200000D03*
X102000000Y-44200000D03*
X101000000Y-44200000D03*
X100000000Y-44200000D03*
X99000000Y-44200000D03*
D80*
X115990000Y-41400000D03*
X96010000Y-41400000D03*
D81*
X129210000Y-39900000D03*
D82*
X131750000Y-39900000D03*
X129210000Y-42440000D03*
X131750000Y-42440000D03*
X129210000Y-44980000D03*
X131750000Y-44980000D03*
X129210000Y-47520000D03*
X131750000Y-47520000D03*
X129210000Y-50060000D03*
X131750000Y-50060000D03*
X129210000Y-52600000D03*
X131750000Y-52600000D03*
X129210000Y-55140000D03*
X131750000Y-55140000D03*
X129210000Y-57680000D03*
X131750000Y-57680000D03*
X129210000Y-60220000D03*
X131750000Y-60220000D03*
X129210000Y-62760000D03*
X131750000Y-62760000D03*
X129210000Y-65300000D03*
X131750000Y-65300000D03*
X129210000Y-67840000D03*
X131750000Y-67840000D03*
X129210000Y-70380000D03*
X131750000Y-70380000D03*
X129210000Y-72920000D03*
X131750000Y-72920000D03*
X129210000Y-75460000D03*
X131750000Y-75460000D03*
X129210000Y-78000000D03*
X131750000Y-78000000D03*
X129210000Y-80540000D03*
X131750000Y-80540000D03*
X129210000Y-83080000D03*
X131750000Y-83080000D03*
X129210000Y-85620000D03*
X131750000Y-85620000D03*
X129210000Y-88160000D03*
X131750000Y-88160000D03*
D83*
X144770000Y-61790000D03*
D84*
X142270000Y-61790000D03*
M02*
