G04 #@! TF.GenerationSoftware,KiCad,Pcbnew,(5.99.0-11120-g1d6ad4a52a)*
G04 #@! TF.CreationDate,2021-10-18T08:47:08+02:00*
G04 #@! TF.ProjectId,CarPiPowerHat,43617250-6950-46f7-9765-724861742e6b,0.2*
G04 #@! TF.SameCoordinates,Original*
G04 #@! TF.FileFunction,Copper,L2,Inr*
G04 #@! TF.FilePolarity,Positive*
%FSLAX46Y46*%
G04 Gerber Fmt 4.6, Leading zero omitted, Abs format (unit mm)*
G04 Created by KiCad (PCBNEW (5.99.0-11120-g1d6ad4a52a)) date 2021-10-18 08:47:08*
%MOMM*%
%LPD*%
G01*
G04 APERTURE LIST*
G04 Aperture macros list*
%AMRoundRect*
0 Rectangle with rounded corners*
0 $1 Rounding radius*
0 $2 $3 $4 $5 $6 $7 $8 $9 X,Y pos of 4 corners*
0 Add a 4 corners polygon primitive as box body*
4,1,4,$2,$3,$4,$5,$6,$7,$8,$9,$2,$3,0*
0 Add four circle primitives for the rounded corners*
1,1,$1+$1,$2,$3*
1,1,$1+$1,$4,$5*
1,1,$1+$1,$6,$7*
1,1,$1+$1,$8,$9*
0 Add four rect primitives between the rounded corners*
20,1,$1+$1,$2,$3,$4,$5,0*
20,1,$1+$1,$4,$5,$6,$7,0*
20,1,$1+$1,$6,$7,$8,$9,0*
20,1,$1+$1,$8,$9,$2,$3,0*%
G04 Aperture macros list end*
G04 #@! TA.AperFunction,Profile*
%ADD10C,0.100000*%
G04 #@! TD*
G04 #@! TA.AperFunction,Profile*
%ADD11C,0.150000*%
G04 #@! TD*
G04 #@! TA.AperFunction,ComponentPad*
%ADD12R,1.000000X1.000000*%
G04 #@! TD*
G04 #@! TA.AperFunction,ComponentPad*
%ADD13O,1.000000X1.000000*%
G04 #@! TD*
G04 #@! TA.AperFunction,ComponentPad*
%ADD14C,0.500000*%
G04 #@! TD*
G04 #@! TA.AperFunction,ComponentPad*
%ADD15R,1.700000X1.700000*%
G04 #@! TD*
G04 #@! TA.AperFunction,ComponentPad*
%ADD16O,1.700000X1.700000*%
G04 #@! TD*
G04 #@! TA.AperFunction,ComponentPad*
%ADD17O,1.500000X3.300000*%
G04 #@! TD*
G04 #@! TA.AperFunction,ComponentPad*
%ADD18O,1.500000X2.300000*%
G04 #@! TD*
G04 #@! TA.AperFunction,ComponentPad*
%ADD19RoundRect,0.250001X1.099999X1.599999X-1.099999X1.599999X-1.099999X-1.599999X1.099999X-1.599999X0*%
G04 #@! TD*
G04 #@! TA.AperFunction,ComponentPad*
%ADD20O,2.700000X3.700000*%
G04 #@! TD*
G04 #@! TA.AperFunction,ComponentPad*
%ADD21R,1.600000X1.600000*%
G04 #@! TD*
G04 #@! TA.AperFunction,ComponentPad*
%ADD22C,1.600000*%
G04 #@! TD*
G04 #@! TA.AperFunction,ComponentPad*
%ADD23C,2.150000*%
G04 #@! TD*
G04 #@! TA.AperFunction,ComponentPad*
%ADD24RoundRect,0.250000X0.600000X0.750000X-0.600000X0.750000X-0.600000X-0.750000X0.600000X-0.750000X0*%
G04 #@! TD*
G04 #@! TA.AperFunction,ComponentPad*
%ADD25O,1.700000X2.000000*%
G04 #@! TD*
G04 #@! TA.AperFunction,ViaPad*
%ADD26C,0.450000*%
G04 #@! TD*
G04 APERTURE END LIST*
D10*
X81000000Y-116500000D02*
X170500000Y-116500000D01*
X98499997Y-36500003D02*
G75*
G02*
X97500000Y-35500000I3J1000000D01*
G01*
X97500000Y-35500000D02*
X97500000Y-32500000D01*
X96500003Y-31499997D02*
G75*
G02*
X97500000Y-32500000I-3J-1000000D01*
G01*
X113500000Y-36500000D02*
X98500000Y-36500000D01*
X81000000Y-116500000D02*
G75*
G02*
X78005236Y-113500005I5236J2999995D01*
G01*
X78000000Y-34500000D02*
X78005236Y-113500005D01*
X115499997Y-31500003D02*
G75*
G03*
X114500000Y-32500000I0J-999997D01*
G01*
X96500000Y-31500000D02*
X81000000Y-31500000D01*
X173999998Y-34999998D02*
G75*
G03*
X170500000Y-31500000I-3499998J0D01*
G01*
X114500000Y-32500000D02*
X114500000Y-35500000D01*
X170500000Y-31500000D02*
X115500000Y-31500000D01*
X174000000Y-35000000D02*
X174000000Y-113000000D01*
X174000002Y-113000002D02*
G75*
G02*
X170500000Y-116500000I-3500000J2D01*
G01*
D11*
X113500000Y-36500000D02*
G75*
G03*
X114500000Y-35500000I0J1000000D01*
G01*
D10*
X78000000Y-34500000D02*
G75*
G02*
X81000000Y-31500000I3000000J0D01*
G01*
D12*
X80850000Y-98550000D03*
D13*
X80850000Y-99820000D03*
X80850000Y-101090000D03*
X80850000Y-102360000D03*
D14*
X165559400Y-44778100D03*
X166859400Y-46078100D03*
X166859400Y-44778100D03*
X165559400Y-46078100D03*
X168159400Y-44778100D03*
X169459400Y-44778100D03*
X169459400Y-46078100D03*
X168159400Y-46078100D03*
D15*
X146500035Y-45659990D03*
D16*
X149040035Y-45659990D03*
X146500035Y-48199990D03*
X149040035Y-48199990D03*
X146500035Y-50739990D03*
X149040035Y-50739990D03*
D17*
X96350035Y-106949990D03*
X81850035Y-106949990D03*
D18*
X81850035Y-112909990D03*
X96350035Y-112909990D03*
D17*
X121550035Y-106949990D03*
X107050035Y-106949990D03*
D18*
X107050035Y-112909990D03*
X121550035Y-112909990D03*
D19*
X163200000Y-104974990D03*
D20*
X159000000Y-104974990D03*
X154800000Y-104974990D03*
X163200000Y-99474990D03*
X159000000Y-99474990D03*
X154800000Y-99474990D03*
D21*
X143000035Y-106559990D03*
D22*
X143000035Y-104559990D03*
X143000035Y-102559990D03*
X143000035Y-100559990D03*
D23*
X145720035Y-107289990D03*
X140280035Y-107289990D03*
X145720035Y-100289990D03*
X140280035Y-100289990D03*
D15*
X129210000Y-39900000D03*
D16*
X131750000Y-39900000D03*
X129210000Y-42440000D03*
X131750000Y-42440000D03*
X129210000Y-44980000D03*
X131750000Y-44980000D03*
X129210000Y-47520000D03*
X131750000Y-47520000D03*
X129210000Y-50060000D03*
X131750000Y-50060000D03*
X129210000Y-52600000D03*
X131750000Y-52600000D03*
X129210000Y-55140000D03*
X131750000Y-55140000D03*
X129210000Y-57680000D03*
X131750000Y-57680000D03*
X129210000Y-60220000D03*
X131750000Y-60220000D03*
X129210000Y-62760000D03*
X131750000Y-62760000D03*
X129210000Y-65300000D03*
X131750000Y-65300000D03*
X129210000Y-67840000D03*
X131750000Y-67840000D03*
X129210000Y-70380000D03*
X131750000Y-70380000D03*
X129210000Y-72920000D03*
X131750000Y-72920000D03*
X129210000Y-75460000D03*
X131750000Y-75460000D03*
X129210000Y-78000000D03*
X131750000Y-78000000D03*
X129210000Y-80540000D03*
X131750000Y-80540000D03*
X129210000Y-83080000D03*
X131750000Y-83080000D03*
X129210000Y-85620000D03*
X131750000Y-85620000D03*
X129210000Y-88160000D03*
X131750000Y-88160000D03*
D24*
X140800035Y-46699990D03*
D25*
X138300035Y-46699990D03*
D26*
X119800000Y-92800000D03*
X122200000Y-60500000D03*
X119700035Y-112899990D03*
X82000035Y-115499990D03*
X79000035Y-63499990D03*
X172500000Y-101700000D03*
X159800035Y-54399990D03*
X162425000Y-44127000D03*
X172600035Y-72399990D03*
X126600035Y-91399990D03*
X154900035Y-40399990D03*
X117600035Y-46499990D03*
X139700035Y-37699990D03*
X159800035Y-55599990D03*
X143900035Y-75299990D03*
X102000070Y-42699980D03*
X116000035Y-35499990D03*
X165500035Y-108399990D03*
X142500035Y-72599990D03*
X166400035Y-103299990D03*
X150800000Y-74850000D03*
X164325000Y-48827000D03*
X154200035Y-37199990D03*
X81500035Y-43599990D03*
X157000035Y-115499990D03*
X134400000Y-66500000D03*
X108800035Y-106949990D03*
X167600035Y-103299990D03*
X91700035Y-39799990D03*
X160300035Y-46499990D03*
X145200035Y-104799990D03*
X141000035Y-32499990D03*
X161200035Y-109599990D03*
X139100035Y-33699990D03*
X144100035Y-45399990D03*
X166400035Y-106199990D03*
X153950035Y-83249990D03*
X98800035Y-111699990D03*
X167000035Y-32499990D03*
X163500000Y-80450000D03*
X145200035Y-103799990D03*
X148500035Y-71099990D03*
X142500035Y-94849990D03*
X144000035Y-82299990D03*
X143900035Y-72599990D03*
X152350000Y-73400000D03*
X152300035Y-104999990D03*
X139000035Y-115499990D03*
X172500000Y-85700000D03*
X126000035Y-32499990D03*
X155300000Y-86650000D03*
X165535000Y-53027000D03*
X157000035Y-32499990D03*
X172500000Y-53700000D03*
X90100000Y-108150000D03*
X91000035Y-32499990D03*
X146700035Y-89099990D03*
X113800035Y-107999990D03*
X105750000Y-37200000D03*
X149000035Y-38799990D03*
X96500035Y-68799990D03*
X125150000Y-73550000D03*
X172500000Y-57700000D03*
X160400035Y-69499990D03*
X121000035Y-32499990D03*
X141800035Y-59199990D03*
X157000035Y-81699990D03*
X160900000Y-83350000D03*
X127900035Y-70399990D03*
X171800000Y-49127000D03*
X157000035Y-83199990D03*
X163900000Y-46750000D03*
X161200035Y-108399990D03*
X160300035Y-45427000D03*
X108800035Y-112849990D03*
X172500000Y-38700000D03*
X109000035Y-58949990D03*
X141600035Y-97549990D03*
X112750000Y-37200000D03*
X140400035Y-34499990D03*
X162000035Y-32499990D03*
X80050035Y-106999990D03*
X125950000Y-60450000D03*
X98500000Y-37200000D03*
X87500000Y-85200000D03*
X140650035Y-104699990D03*
X88600000Y-108150000D03*
X172700000Y-44127000D03*
X173000035Y-109499990D03*
X171800000Y-45627000D03*
X156900035Y-64499990D03*
X124750035Y-77449990D03*
X157900035Y-70599990D03*
X93100000Y-108200000D03*
X163500000Y-65700000D03*
X112600000Y-56700000D03*
X172700000Y-42527000D03*
X171900000Y-42527000D03*
X138700035Y-70399990D03*
X146300035Y-103799990D03*
X142550035Y-45849990D03*
X126950035Y-94799990D03*
X138600035Y-88099990D03*
X136350000Y-91150000D03*
X165535000Y-50937000D03*
X157200035Y-50699990D03*
X165535000Y-50187000D03*
X172700000Y-49127000D03*
X153650035Y-49749990D03*
X162425000Y-48827000D03*
X96350035Y-110799990D03*
X79000035Y-78450000D03*
X169215000Y-50097000D03*
X146200000Y-91950000D03*
X143900035Y-73899990D03*
X134900035Y-70399990D03*
X142500035Y-75299990D03*
X108000035Y-42699990D03*
X154800035Y-107799990D03*
X140200035Y-88099990D03*
X133600035Y-62699990D03*
X158100035Y-54399990D03*
X162650000Y-88600000D03*
X105000035Y-42699990D03*
X165500035Y-109599990D03*
X136150000Y-70450000D03*
X164200035Y-108399990D03*
X96500035Y-85299990D03*
X115100035Y-50199990D03*
X147000035Y-115499990D03*
X164650000Y-47400000D03*
X99000035Y-42717990D03*
X122200035Y-46099990D03*
X164200035Y-109599990D03*
X117000035Y-115499990D03*
X170325000Y-45327000D03*
X80150035Y-112849990D03*
X91375000Y-58300000D03*
X170325000Y-44238100D03*
X146300035Y-102699990D03*
X164625000Y-44127000D03*
X160900000Y-84600000D03*
X96000035Y-32499990D03*
X171800000Y-48127000D03*
X149400000Y-76200000D03*
X122600035Y-68899990D03*
X150100035Y-71099990D03*
X163100000Y-82400000D03*
X162425000Y-45427000D03*
X114700000Y-52750000D03*
X122900035Y-80899990D03*
X165535000Y-52247000D03*
X92000035Y-115499990D03*
X139550035Y-102599990D03*
X150950035Y-108199990D03*
X172700000Y-46827000D03*
X152000035Y-32499990D03*
X137150035Y-93949990D03*
X79000035Y-52499990D03*
X122000035Y-115499990D03*
X163150000Y-86600000D03*
X86000035Y-32499990D03*
X79000035Y-68499990D03*
X172700000Y-45627000D03*
X79000035Y-107499990D03*
X147000035Y-32499990D03*
X137400000Y-92100000D03*
X172500000Y-93700000D03*
X79000035Y-112499990D03*
X96500035Y-73799990D03*
X101700035Y-115199990D03*
X127200035Y-49999990D03*
X156900035Y-104999990D03*
X126700035Y-47399990D03*
X158100035Y-53199990D03*
X122450035Y-77449990D03*
X136900035Y-37699990D03*
X163900000Y-44100000D03*
X142500035Y-73999990D03*
X125700035Y-57499990D03*
X172600035Y-64699990D03*
X134800035Y-82699990D03*
X120450035Y-58949990D03*
X165300035Y-101999990D03*
X142550035Y-47549990D03*
X123700035Y-41499990D03*
X153950035Y-78999990D03*
X136400035Y-55549990D03*
X167600035Y-104699990D03*
X144200000Y-78050000D03*
X134100035Y-44999990D03*
X137600035Y-33699990D03*
X159800035Y-53199990D03*
X107000035Y-115499990D03*
X169205000Y-52237000D03*
X123600035Y-51099990D03*
X79000035Y-38499990D03*
X163830000Y-45427000D03*
X80000035Y-114499990D03*
X126600035Y-87599990D03*
X152000035Y-115499990D03*
X133700035Y-75499990D03*
X164725000Y-45427000D03*
X112000035Y-115499990D03*
X79000035Y-47499990D03*
X97000035Y-115499990D03*
X118300035Y-107999990D03*
X169205000Y-53017000D03*
X133800035Y-80499990D03*
X164650000Y-46750000D03*
X163425000Y-48827000D03*
X136800035Y-82699990D03*
X162425000Y-47827000D03*
X163900000Y-47400000D03*
X87000035Y-115499990D03*
X171800000Y-46827000D03*
X96500035Y-78750000D03*
X162400035Y-46599990D03*
X126300035Y-63599990D03*
X166400035Y-104699990D03*
X137500035Y-70399990D03*
X140200035Y-89399990D03*
X116800035Y-107999990D03*
X155300000Y-89050000D03*
X137700035Y-112499990D03*
X137700035Y-105499990D03*
X160900000Y-85850000D03*
X161000035Y-104999990D03*
X170200035Y-58199990D03*
X158100035Y-55499990D03*
X162800035Y-109599990D03*
X115300035Y-107999990D03*
X143900035Y-38799990D03*
X79000035Y-43499990D03*
X126500035Y-66099990D03*
X143000035Y-115499990D03*
X145200035Y-102699990D03*
X166400035Y-107599990D03*
X170325000Y-46448100D03*
X161900000Y-86600000D03*
X163500000Y-62700000D03*
X172500000Y-77700000D03*
X96000035Y-35499990D03*
X116000035Y-32499990D03*
X127700035Y-89299990D03*
X167550035Y-106199990D03*
X108950000Y-55900000D03*
X168000035Y-109749990D03*
X119800035Y-106899990D03*
X138600035Y-89399990D03*
X134800035Y-84499990D03*
X137700035Y-97099990D03*
X96350035Y-109349990D03*
X169205000Y-50927000D03*
X170250000Y-67500000D03*
X79000035Y-73499990D03*
X136200035Y-34399990D03*
X125700035Y-53599990D03*
X101700035Y-111599990D03*
X119700035Y-41499990D03*
X91600000Y-108150000D03*
X163250000Y-72000000D03*
X157000035Y-84599990D03*
X172700000Y-48127000D03*
X140650035Y-103699990D03*
X112000000Y-53050000D03*
X161850000Y-82400000D03*
X115100035Y-44499990D03*
X171800000Y-44127000D03*
X162800035Y-108399990D03*
X163500000Y-69700000D03*
X162000035Y-115499990D03*
X138300035Y-37699990D03*
X139550035Y-104699990D03*
X167000035Y-115499990D03*
X160300035Y-44199990D03*
X139550035Y-103699990D03*
X146700035Y-86599990D03*
X146300035Y-104799990D03*
X93500035Y-85200000D03*
X90500000Y-85200000D03*
X140650035Y-102599990D03*
X164825000Y-48067000D03*
X164909411Y-37748100D03*
X111650000Y-73400000D03*
X112750035Y-59549990D03*
X124450000Y-76100000D03*
X94270543Y-102129457D03*
X94270543Y-102129457D03*
X153100035Y-60599990D03*
X94729457Y-101670543D03*
X94729457Y-101670543D03*
X124300000Y-74150000D03*
X94020543Y-99379457D03*
X94020543Y-99379457D03*
X94479457Y-98920543D03*
X94479457Y-98920543D03*
X168155000Y-49347000D03*
X157000035Y-62599990D03*
X94470543Y-97479457D03*
X94470543Y-97479457D03*
X94929457Y-97020543D03*
X94929457Y-97020543D03*
X95220543Y-94029457D03*
X95220543Y-94029457D03*
X95679457Y-93570543D03*
X95679457Y-93570543D03*
X88150000Y-108800000D03*
X87100000Y-108750000D03*
X106300035Y-96999990D03*
X112000035Y-46599990D03*
X111000035Y-45899990D03*
X105600035Y-95199990D03*
X85900000Y-108800000D03*
X106900035Y-98599990D03*
X113000035Y-45999990D03*
X119800035Y-75399990D03*
X126000035Y-115499990D03*
X109550000Y-86850000D03*
X120500035Y-98199990D03*
X110700035Y-76999990D03*
X108450035Y-61199990D03*
X119350000Y-95550000D03*
X131000035Y-115499990D03*
X130000035Y-96899990D03*
X119950035Y-78449990D03*
X120400000Y-66550000D03*
X136100035Y-110999990D03*
X116450000Y-92950000D03*
X120200035Y-64050000D03*
X108450035Y-80199990D03*
X125000035Y-103749990D03*
X136100035Y-96999990D03*
X123700035Y-89399990D03*
X134200035Y-111499990D03*
X108450035Y-84449990D03*
X136100035Y-107199990D03*
X112450000Y-70700000D03*
X120200035Y-61199990D03*
X110800035Y-74699990D03*
X112900000Y-89650000D03*
X108450035Y-75699990D03*
X114350000Y-70700000D03*
X108450035Y-70949990D03*
X124200035Y-84499990D03*
X108450035Y-66699990D03*
X123900035Y-94799990D03*
X120800035Y-102699990D03*
X115200035Y-66699990D03*
X122800035Y-102699990D03*
X120175000Y-68550000D03*
X125000035Y-106499990D03*
X121000035Y-81599990D03*
X125000035Y-109499990D03*
X115200035Y-61199990D03*
X125700035Y-96399990D03*
X136100035Y-100749990D03*
X152100035Y-56199990D03*
X147200035Y-65099990D03*
X148400035Y-54799990D03*
X104600035Y-110399990D03*
X149700035Y-54799990D03*
X91200035Y-43599990D03*
X92300035Y-43699990D03*
X142300035Y-87787979D03*
X155300035Y-46699990D03*
X143000035Y-87762979D03*
X155300035Y-45899990D03*
X143000035Y-88462979D03*
X154700035Y-45899990D03*
X154700035Y-46699990D03*
X154700035Y-45197000D03*
X155300035Y-45197000D03*
X143000035Y-89162979D03*
X170625000Y-39027000D03*
X142300035Y-88487979D03*
X142300035Y-89187979D03*
X100400035Y-110299990D03*
G04 #@! TA.AperFunction,Conductor*
G36*
X120859226Y-60618897D02*
G01*
X120895190Y-60668397D01*
X120900035Y-60698990D01*
X120900035Y-80699990D01*
X120907227Y-80706444D01*
X124767158Y-84170485D01*
X124797838Y-84223423D01*
X124800035Y-84244165D01*
X124800035Y-94199990D01*
X126500035Y-96399990D01*
X136501035Y-96399990D01*
X136559226Y-96418897D01*
X136595190Y-96468397D01*
X136600035Y-96498990D01*
X136600035Y-116201000D01*
X136581128Y-116259191D01*
X136531628Y-116295155D01*
X136501035Y-116300000D01*
X124399035Y-116300000D01*
X124340844Y-116281093D01*
X124304880Y-116231593D01*
X124300035Y-116201000D01*
X124300035Y-112885263D01*
X129494638Y-112885263D01*
X129511875Y-113090538D01*
X129513208Y-113095186D01*
X129513208Y-113095187D01*
X129560302Y-113259420D01*
X129568656Y-113288555D01*
X129662817Y-113471773D01*
X129790772Y-113633212D01*
X129947647Y-113766723D01*
X129951870Y-113769083D01*
X129951874Y-113769086D01*
X130068488Y-113834259D01*
X130127467Y-113867221D01*
X130132065Y-113868715D01*
X130318777Y-113929382D01*
X130318780Y-113929383D01*
X130323382Y-113930878D01*
X130527930Y-113955269D01*
X130532752Y-113954898D01*
X130532755Y-113954898D01*
X130728493Y-113939837D01*
X130728498Y-113939836D01*
X130733321Y-113939465D01*
X130931730Y-113884068D01*
X130962124Y-113868715D01*
X131111279Y-113793371D01*
X131111281Y-113793370D01*
X131115600Y-113791188D01*
X131277928Y-113664363D01*
X131281090Y-113660700D01*
X131281095Y-113660695D01*
X131409367Y-113512089D01*
X131412531Y-113508424D01*
X131416113Y-113502120D01*
X131511893Y-113333517D01*
X131511894Y-113333514D01*
X131514282Y-113329311D01*
X131529390Y-113283897D01*
X131577778Y-113138435D01*
X131577778Y-113138433D01*
X131579305Y-113133844D01*
X131583198Y-113103032D01*
X131604775Y-112932225D01*
X131605123Y-112929471D01*
X131605535Y-112900000D01*
X131603619Y-112880455D01*
X131585905Y-112699796D01*
X131585904Y-112699792D01*
X131585433Y-112694986D01*
X131582528Y-112685362D01*
X131563429Y-112622106D01*
X131525893Y-112497780D01*
X131429183Y-112315895D01*
X131298987Y-112156259D01*
X131219571Y-112090560D01*
X131143990Y-112028034D01*
X131143988Y-112028033D01*
X131140263Y-112024951D01*
X130959058Y-111926973D01*
X130895987Y-111907449D01*
X130766894Y-111867488D01*
X130766890Y-111867487D01*
X130762273Y-111866058D01*
X130757466Y-111865553D01*
X130757462Y-111865552D01*
X130562220Y-111845032D01*
X130562218Y-111845032D01*
X130557404Y-111844526D01*
X130489407Y-111850714D01*
X130357074Y-111862757D01*
X130357071Y-111862758D01*
X130352254Y-111863196D01*
X130347612Y-111864562D01*
X130347608Y-111864563D01*
X130159285Y-111919989D01*
X130159282Y-111919990D01*
X130154638Y-111921357D01*
X130150344Y-111923602D01*
X129976379Y-112014548D01*
X129976375Y-112014551D01*
X129972082Y-112016795D01*
X129968306Y-112019831D01*
X129968303Y-112019833D01*
X129880337Y-112090560D01*
X129811540Y-112145874D01*
X129799678Y-112160011D01*
X129682237Y-112299971D01*
X129682234Y-112299975D01*
X129679128Y-112303677D01*
X129579888Y-112484194D01*
X129578424Y-112488808D01*
X129578423Y-112488811D01*
X129576933Y-112493508D01*
X129517600Y-112680549D01*
X129494638Y-112885263D01*
X124300035Y-112885263D01*
X124300035Y-105885263D01*
X129494638Y-105885263D01*
X129511875Y-106090538D01*
X129568656Y-106288555D01*
X129662817Y-106471773D01*
X129790772Y-106633212D01*
X129794452Y-106636344D01*
X129794454Y-106636346D01*
X129907872Y-106732872D01*
X129947647Y-106766723D01*
X129951870Y-106769083D01*
X129951874Y-106769086D01*
X130037532Y-106816958D01*
X130127467Y-106867221D01*
X130132065Y-106868715D01*
X130318777Y-106929382D01*
X130318780Y-106929383D01*
X130323382Y-106930878D01*
X130527930Y-106955269D01*
X130532752Y-106954898D01*
X130532755Y-106954898D01*
X130728493Y-106939837D01*
X130728498Y-106939836D01*
X130733321Y-106939465D01*
X130931730Y-106884068D01*
X130962124Y-106868715D01*
X131111279Y-106793371D01*
X131111281Y-106793370D01*
X131115600Y-106791188D01*
X131277928Y-106664363D01*
X131281090Y-106660700D01*
X131281095Y-106660695D01*
X131409367Y-106512089D01*
X131412531Y-106508424D01*
X131422680Y-106490560D01*
X131511893Y-106333517D01*
X131511894Y-106333514D01*
X131514282Y-106329311D01*
X131529390Y-106283897D01*
X131577778Y-106138435D01*
X131577778Y-106138433D01*
X131579305Y-106133844D01*
X131584189Y-106095187D01*
X131604775Y-105932225D01*
X131605123Y-105929471D01*
X131605535Y-105900000D01*
X131600463Y-105848272D01*
X131585905Y-105699796D01*
X131585904Y-105699792D01*
X131585433Y-105694986D01*
X131582528Y-105685362D01*
X131527291Y-105502412D01*
X131525893Y-105497780D01*
X131429183Y-105315895D01*
X131298987Y-105156259D01*
X131237918Y-105105738D01*
X131143990Y-105028034D01*
X131143988Y-105028033D01*
X131140263Y-105024951D01*
X130959058Y-104926973D01*
X130895987Y-104907449D01*
X130766894Y-104867488D01*
X130766890Y-104867487D01*
X130762273Y-104866058D01*
X130757466Y-104865553D01*
X130757462Y-104865552D01*
X130562220Y-104845032D01*
X130562218Y-104845032D01*
X130557404Y-104844526D01*
X130489407Y-104850714D01*
X130357074Y-104862757D01*
X130357071Y-104862758D01*
X130352254Y-104863196D01*
X130347612Y-104864562D01*
X130347608Y-104864563D01*
X130159285Y-104919989D01*
X130159282Y-104919990D01*
X130154638Y-104921357D01*
X130150344Y-104923602D01*
X129976379Y-105014548D01*
X129976375Y-105014551D01*
X129972082Y-105016795D01*
X129968306Y-105019831D01*
X129968303Y-105019833D01*
X129880337Y-105090560D01*
X129811540Y-105145874D01*
X129799678Y-105160011D01*
X129682237Y-105299971D01*
X129682234Y-105299975D01*
X129679128Y-105303677D01*
X129579888Y-105484194D01*
X129578424Y-105488808D01*
X129578423Y-105488811D01*
X129548278Y-105583840D01*
X129517600Y-105680549D01*
X129517060Y-105685361D01*
X129517060Y-105685362D01*
X129497712Y-105857860D01*
X129494638Y-105885263D01*
X124300035Y-105885263D01*
X124300035Y-103599990D01*
X119998591Y-103599924D01*
X119940402Y-103581016D01*
X119904439Y-103531515D01*
X119899594Y-103500917D01*
X119900034Y-97365681D01*
X119900035Y-97350000D01*
X107732418Y-86125398D01*
X107702467Y-86072044D01*
X107700545Y-86052633D01*
X107700441Y-80706444D01*
X107700298Y-73400000D01*
X111219500Y-73400000D01*
X111240570Y-73533032D01*
X111244106Y-73539971D01*
X111244106Y-73539972D01*
X111249216Y-73550000D01*
X111301718Y-73653042D01*
X111396958Y-73748282D01*
X111403895Y-73751817D01*
X111403897Y-73751818D01*
X111501832Y-73801718D01*
X111516968Y-73809430D01*
X111524662Y-73810649D01*
X111524663Y-73810649D01*
X111642303Y-73829281D01*
X111650000Y-73830500D01*
X111657697Y-73829281D01*
X111775337Y-73810649D01*
X111775338Y-73810649D01*
X111783032Y-73809430D01*
X111798168Y-73801718D01*
X111896103Y-73751818D01*
X111896105Y-73751817D01*
X111903042Y-73748282D01*
X111998282Y-73653042D01*
X112050785Y-73550000D01*
X112055894Y-73539972D01*
X112055894Y-73539971D01*
X112059430Y-73533032D01*
X112080500Y-73400000D01*
X112059430Y-73266968D01*
X111998282Y-73146958D01*
X111903042Y-73051718D01*
X111896105Y-73048183D01*
X111896103Y-73048182D01*
X111789972Y-72994106D01*
X111789971Y-72994106D01*
X111783032Y-72990570D01*
X111775338Y-72989351D01*
X111775337Y-72989351D01*
X111657697Y-72970719D01*
X111650000Y-72969500D01*
X111642303Y-72970719D01*
X111524663Y-72989351D01*
X111524662Y-72989351D01*
X111516968Y-72990570D01*
X111510029Y-72994106D01*
X111510028Y-72994106D01*
X111403897Y-73048182D01*
X111403895Y-73048183D01*
X111396958Y-73051718D01*
X111301718Y-73146958D01*
X111240570Y-73266968D01*
X111219500Y-73400000D01*
X107700298Y-73400000D01*
X107700249Y-70899990D01*
X116250035Y-70899990D01*
X116250035Y-73299990D01*
X118300035Y-73299990D01*
X118300035Y-70899990D01*
X116250035Y-70899990D01*
X107700249Y-70899990D01*
X107700049Y-60699000D01*
X107718955Y-60640809D01*
X107768454Y-60604844D01*
X107799049Y-60599998D01*
X114300108Y-60599994D01*
X120801035Y-60599990D01*
X120859226Y-60618897D01*
G37*
G04 #@! TD.AperFunction*
G04 #@! TA.AperFunction,Conductor*
G36*
X170167121Y-43847002D02*
G01*
X170213614Y-43900658D01*
X170225000Y-43953000D01*
X170225000Y-46901000D01*
X170204998Y-46969121D01*
X170151342Y-47015614D01*
X170099000Y-47027000D01*
X164651000Y-47027000D01*
X164582879Y-47006998D01*
X164536386Y-46953342D01*
X164525000Y-46901000D01*
X164525000Y-43953000D01*
X164545002Y-43884879D01*
X164598658Y-43838386D01*
X164651000Y-43827000D01*
X170099000Y-43827000D01*
X170167121Y-43847002D01*
G37*
G04 #@! TD.AperFunction*
M02*
