M48
; DRILL file {KiCad (5.99.0-11120-g1d6ad4a52a)} date Mon Oct 18 08:47:02 2021
; FORMAT={-:-/ absolute / inch / decimal}
; #@! TF.CreationDate,2021-10-18T08:47:02+02:00
; #@! TF.GenerationSoftware,Kicad,Pcbnew,(5.99.0-11120-g1d6ad4a52a)
; #@! TF.FileFunction,MixedPlating,1,4
FMAT,2
INCH
; #@! TA.AperFunction,Plated,PTH,ViaDrill
T1C0.0098
; #@! TA.AperFunction,Plated,PTH,ComponentDrill
T2C0.0098
; #@! TA.AperFunction,Plated,PTH,ComponentDrill
T3C0.0256
; #@! TA.AperFunction,Plated,PTH,ComponentDrill
T4C0.0354
; #@! TA.AperFunction,Plated,PTH,ComponentDrill
T5C0.0362
; #@! TA.AperFunction,Plated,PTH,ComponentDrill
T6C0.0394
; #@! TA.AperFunction,Plated,PTH,ComponentDrill
T7C0.0591
; #@! TA.AperFunction,Plated,PTH,ComponentDrill
T8C0.0709
; #@! TA.AperFunction,NonPlated,NPTH,ComponentDrill
T9C0.0669
; #@! TA.AperFunction,NonPlated,NPTH,ComponentDrill
T10C0.1063
; #@! TA.AperFunction,NonPlated,NPTH,ComponentDrill
T11C0.1181
%
G90
G05
T1
X3.1102Y-1.5157
X3.1102Y-1.7126
X3.1102Y-1.8701
X3.1102Y-2.0669
X3.1102Y-2.5
X3.1102Y-2.6968
X3.1102Y-2.8937
X3.1102Y-3.0886
X3.1102Y-4.2323
X3.1102Y-4.4291
X3.1496Y-4.5079
X3.1516Y-4.2126
X3.1555Y-4.4429
X3.2087Y-1.7165
X3.2283Y-4.5472
X3.3819Y-4.2835
X3.3858Y-1.2795
X3.4252Y-4.5472
X3.4291Y-4.2815
X3.4449Y-3.3543
X3.4705Y-4.2835
X3.4882Y-4.2579
X3.5472Y-4.2579
X3.563Y-3.3543
X3.5827Y-1.2795
X3.5906Y-1.7165
X3.5974Y-2.2953
X3.6063Y-4.2579
X3.6102Y-1.5669
X3.622Y-4.5472
X3.6339Y-1.7205
X3.6654Y-4.2598
X3.6811Y-3.3543
X3.7016Y-3.9126
X3.7016Y-3.9126
X3.7114Y-4.0208
X3.7114Y-4.0208
X3.7193Y-3.8378
X3.7193Y-3.8378
X3.7197Y-3.8945
X3.7197Y-3.8945
X3.7295Y-4.0028
X3.7295Y-4.0028
X3.7374Y-3.8197
X3.7374Y-3.8197
X3.7488Y-3.7019
X3.7488Y-3.7019
X3.7669Y-3.6839
X3.7669Y-3.6839
X3.7795Y-1.2795
X3.7795Y-1.3976
X3.7933Y-4.3051
X3.7933Y-4.3622
X3.7992Y-2.7087
X3.7992Y-2.9055
X3.7992Y-3.1004
X3.7992Y-3.3583
X3.8189Y-4.5472
X3.878Y-1.4646
X3.8898Y-4.3976
X3.8976Y-1.6818
X3.9528Y-4.3425
X4.0039Y-4.3937
X4.0039Y-4.5354
X4.0158Y-1.6811
X4.1181Y-4.3465
X4.1339Y-1.6811
X4.1575Y-3.748
X4.1634Y-1.4646
X4.185Y-3.8189
X4.2087Y-3.8819
X4.2126Y-4.5472
X4.252Y-1.6811
X4.2697Y-2.4094
X4.2697Y-2.626
X4.2697Y-2.7933
X4.2697Y-2.9803
X4.2697Y-3.1575
X4.2697Y-3.3248
X4.2835Y-4.2106
X4.2835Y-4.4429
X4.2894Y-2.2008
X4.2913Y-2.3209
X4.313Y-3.4193
X4.3583Y-3.0315
X4.3622Y-2.9409
X4.3701Y-1.8071
X4.3957Y-2.8898
X4.4094Y-2.0886
X4.4095Y-1.8346
X4.4095Y-4.5472
X4.4272Y-2.7835
X4.4331Y-2.2323
X4.439Y-1.4646
X4.439Y-2.3445
X4.4449Y-3.5295
X4.4488Y-1.811
X4.4803Y-4.252
X4.502Y-2.7835
X4.5157Y-2.0768
X4.5315Y-1.752
X4.5315Y-1.9764
X4.5354Y-2.4094
X4.5354Y-2.626
X4.5394Y-4.252
X4.5669Y-1.2795
X4.5669Y-1.3976
X4.5846Y-3.6594
X4.5984Y-4.252
X4.6063Y-4.5472
X4.6299Y-1.8307
X4.6575Y-4.252
X4.6988Y-3.7618
X4.7126Y-1.6339
X4.7126Y-4.4449
X4.7165Y-3.6535
X4.7165Y-2.9685
X4.7165Y-4.2087
X4.7224Y-3.0886
X4.7313Y-2.6988
X4.7323Y-2.4094
X4.7323Y-2.5217
X4.7402Y-2.6201
X4.7421Y-2.3209
X4.7441Y-3.8661
X4.7559Y-4.0433
X4.7638Y-1.2795
X4.7638Y-3.2126
X4.8032Y-4.5472
X4.811Y-2.3819
X4.811Y-1.815
X4.8209Y-3.0492
X4.8268Y-2.7126
X4.8346Y-4.0433
X4.8386Y-3.185
X4.8661Y-2.0118
X4.8701Y-1.6339
X4.8701Y-3.5197
X4.878Y-3.7323
X4.8898Y-3.3268
X4.8937Y-2.9193
X4.8996Y-2.9961
X4.9114Y-3.0492
X4.9213Y-4.0846
X4.9213Y-4.1929
X4.9213Y-4.311
X4.9272Y-2.8957
X4.9488Y-2.1102
X4.9488Y-2.2638
X4.9488Y-3.7953
X4.9587Y-2.3799
X4.9606Y-1.2795
X4.9606Y-4.5472
X4.9724Y-2.5039
X4.9803Y-2.6024
X4.9843Y-3.4488
X4.9843Y-3.5984
X4.9882Y-1.8661
X4.998Y-3.7323
X5.0079Y-1.9685
X5.0276Y-3.5157
X5.0354Y-2.7717
X5.1181Y-3.815
X5.1575Y-4.5472
X5.2598Y-2.4685
X5.2638Y-2.9724
X5.2677Y-3.1693
X5.2795Y-1.7717
X5.2835Y-4.3898
X5.2913Y-2.6181
X5.3071Y-3.2559
X5.3071Y-3.3268
X5.311Y-2.7717
X5.3583Y-3.8189
X5.3583Y-3.9665
X5.3583Y-4.2205
X5.3583Y-4.3701
X5.3602Y-2.7736
X5.3622Y-1.3543
X5.3681Y-3.5886
X5.3701Y-2.187
X5.3858Y-3.2559
X5.3898Y-1.4843
X5.3996Y-3.6988
X5.4094Y-3.626
X5.4134Y-2.7717
X5.4173Y-1.3268
X5.4213Y-3.8228
X5.4213Y-4.1535
X5.4213Y-4.4291
X5.4449Y-1.4843
X5.4567Y-3.4685
X5.4567Y-3.5197
X5.4606Y-2.7717
X5.4724Y-4.5472
X5.4764Y-1.3268
X5.4941Y-4.0394
X5.4941Y-4.0827
X5.4941Y-4.122
X5.5Y-1.4843
X5.5197Y-3.4685
X5.5197Y-3.5197
X5.5276Y-1.3583
X5.5374Y-4.0394
X5.5374Y-4.0827
X5.5374Y-4.122
X5.5512Y-1.2795
X5.5748Y-3.8406
X5.5827Y-2.3307
X5.6024Y-3.4562
X5.6024Y-3.4838
X5.6024Y-3.5113
X5.6102Y-2.8583
X5.6102Y-2.9134
X5.6102Y-2.9646
X5.6102Y-3.7343
X5.6122Y-1.8051
X5.6122Y-1.872
X5.6299Y-3.4552
X5.6299Y-3.4828
X5.6299Y-3.5104
X5.6299Y-4.5472
X5.6654Y-1.5276
X5.6654Y-2.8583
X5.6654Y-2.9094
X5.6654Y-2.9646
X5.6693Y-3.2402
X5.6732Y-1.7874
X5.6772Y-3.0728
X5.7165Y-4.0433
X5.7165Y-4.0866
X5.7165Y-4.126
X5.7559Y-3.6201
X5.7598Y-4.0433
X5.7598Y-4.0866
X5.7598Y-4.126
X5.7756Y-3.4094
X5.7756Y-3.5079
X5.7874Y-1.2795
X5.7874Y-4.5472
X5.7953Y-2.563
X5.8425Y-2.1575
X5.8465Y-2.7992
X5.8661Y-1.5276
X5.8819Y-3.0
X5.8937Y-2.1575
X5.9095Y-2.7992
X5.937Y-2.9469
X5.9429Y-4.2598
X5.9843Y-1.2795
X5.9843Y-4.5472
X5.9882Y-2.2126
X5.9961Y-4.1339
X5.998Y-2.8898
X6.0276Y-2.3858
X6.0492Y-1.9587
X6.061Y-3.1102
X6.061Y-3.2776
X6.0709Y-1.4646
X6.0906Y-1.7794
X6.0906Y-1.8071
X6.0906Y-1.8386
X6.0945Y-4.2441
X6.0984Y-1.5906
X6.1142Y-3.4114
X6.1142Y-3.5059
X6.1142Y-1.7794
X6.1142Y-1.8071
X6.1142Y-1.8386
X6.1772Y-2.5394
X6.1772Y-4.1339
X6.1811Y-1.2795
X6.1811Y-2.4646
X6.1811Y-3.2165
X6.1811Y-3.2756
X6.1811Y-3.3307
X6.1811Y-4.5472
X6.189Y-1.9961
X6.2165Y-2.7795
X6.2244Y-2.0945
X6.2244Y-2.1417
X6.2244Y-2.185
X6.2913Y-2.0945
X6.2913Y-2.1417
X6.2913Y-2.189
X6.311Y-1.7402
X6.311Y-1.7885
X6.311Y-1.8307
X6.315Y-2.7362
X6.3346Y-3.2815
X6.3346Y-3.3307
X6.3346Y-3.3799
X6.3386Y-4.1339
X6.3465Y-4.2677
X6.3465Y-4.315
X6.372Y-3.2441
X6.374Y-3.4094
X6.378Y-1.2795
X6.378Y-4.5472
X6.3937Y-1.8346
X6.3947Y-1.7373
X6.3947Y-1.7885
X6.3947Y-1.883
X6.3947Y-1.9223
X6.4035Y-3.4882
X6.4095Y-4.2677
X6.4095Y-4.315
X6.4213Y-3.2441
X6.4232Y-3.4094
X6.4272Y-2.8346
X6.4341Y-1.9223
X6.437Y-2.4685
X6.437Y-2.5866
X6.437Y-2.7441
X6.437Y-3.1673
X6.45Y-1.7885
X6.4528Y-1.7362
X6.4528Y-1.8406
X6.4528Y-1.8661
X6.4646Y-4.2677
X6.4646Y-4.315
X6.4695Y-1.9223
X6.4813Y-1.7373
X6.4823Y-1.8406
X6.4823Y-1.8661
X6.4852Y-1.7885
X6.4892Y-1.8924
X6.4925Y-1.4861
X6.5079Y-4.0157
X6.5157Y-4.2677
X6.5157Y-4.315
X6.5171Y-1.9759
X6.5171Y-2.0054
X6.5171Y-2.057
X6.5171Y-2.0877
X6.5512Y-4.0669
X6.5512Y-4.122
X6.5512Y-4.1811
X6.5512Y-4.2362
X6.5748Y-1.2795
X6.5748Y-4.5472
X6.5965Y-4.1811
X6.5984Y-4.0669
X6.5984Y-4.122
X6.6142Y-4.3209
X6.6203Y-1.9428
X6.6616Y-2.005
X6.6616Y-2.0566
X6.6616Y-2.0873
X6.662Y-1.9723
X6.7008Y-2.2913
X6.7028Y-2.6575
X6.7057Y-1.7417
X6.7057Y-1.7845
X6.7057Y-1.8287
X6.7175Y-1.5365
X6.7638Y-1.7373
X6.7638Y-1.7963
X6.7638Y-1.8436
X6.7638Y-1.8948
X6.7638Y-1.9341
X6.7677Y-1.6743
X6.7913Y-1.5236
X6.7913Y-2.1142
X6.7913Y-2.2717
X6.7913Y-3.0591
X6.7913Y-3.374
X6.7913Y-3.689
X6.7913Y-4.0039
X6.7953Y-2.5472
X6.7953Y-2.8504
X6.7992Y-1.6743
X6.7992Y-1.7373
X6.7992Y-1.7963
X6.7992Y-1.8436
X6.7992Y-1.8948
X6.7992Y-1.9341
X6.811Y-4.311
T2
X6.5181Y-1.7629
X6.5181Y-1.8141
X6.5693Y-1.7629
X6.5693Y-1.8141
X6.6204Y-1.7629
X6.6204Y-1.8141
X6.6716Y-1.7629
X6.6716Y-1.8141
T3
X3.1831Y-3.8799
X3.1831Y-3.9299
X3.1831Y-3.9799
X3.1831Y-4.0299
T5
X5.6299Y-3.9591
X5.6299Y-4.0378
X5.6299Y-4.1165
X5.6299Y-4.1953
T6
X5.087Y-1.5709
X5.087Y-1.6709
X5.087Y-1.7709
X5.087Y-1.8709
X5.087Y-1.9709
X5.087Y-2.0709
X5.087Y-2.1709
X5.087Y-2.2709
X5.087Y-2.3709
X5.087Y-2.4709
X5.087Y-2.5709
X5.087Y-2.6709
X5.087Y-2.7709
X5.087Y-2.8709
X5.087Y-2.9709
X5.087Y-3.0709
X5.087Y-3.1709
X5.087Y-3.2709
X5.087Y-3.3709
X5.087Y-3.4709
X5.187Y-1.5709
X5.187Y-1.6709
X5.187Y-1.7709
X5.187Y-1.8709
X5.187Y-1.9709
X5.187Y-2.0709
X5.187Y-2.1709
X5.187Y-2.2709
X5.187Y-2.3709
X5.187Y-2.4709
X5.187Y-2.5709
X5.187Y-2.6709
X5.187Y-2.7709
X5.187Y-2.8709
X5.187Y-2.9709
X5.187Y-3.0709
X5.187Y-3.1709
X5.187Y-3.2709
X5.187Y-3.3709
X5.187Y-3.4709
X5.4449Y-1.8386
X5.5433Y-1.8386
X5.7677Y-1.7976
X5.7677Y-1.8976
X5.7677Y-1.9976
X5.8677Y-1.7976
X5.8677Y-1.8976
X5.8677Y-1.9976
T7
X5.5228Y-3.9484
X5.5228Y-4.224
X5.737Y-3.9484
X5.737Y-4.224
T8
X6.0945Y-3.9163
X6.0945Y-4.1329
X6.2598Y-3.9163
X6.2598Y-4.1329
X6.4252Y-3.9163
X6.4252Y-4.1329
T9
X5.1398Y-4.1693
X5.1398Y-4.4449
T10
X3.2087Y-1.378
X3.2087Y-3.6614
X5.1378Y-1.378
X5.1378Y-3.6614
X6.7126Y-1.378
X6.7126Y-4.4488
T11
X6.0945Y-4.4203
X6.4252Y-4.4203
T4
G00X3.2224Y-4.1752
M15
G01X3.2224Y-4.2461
M16
G05
G00X3.2224Y-4.4295
M15
G01X3.2224Y-4.461
M16
G05
G00X3.7933Y-4.1752
M15
G01X3.7933Y-4.2461
M16
G05
G00X3.7933Y-4.4295
M15
G01X3.7933Y-4.461
M16
G05
G00X4.2146Y-4.1752
M15
G01X4.2146Y-4.2461
M16
G05
G00X4.2146Y-4.4295
M15
G01X4.2146Y-4.461
M16
G05
G00X4.7854Y-4.1752
M15
G01X4.7854Y-4.2461
M16
G05
G00X4.7854Y-4.4295
M15
G01X4.7854Y-4.461
M16
G05
T0
M30
