G04 #@! TF.GenerationSoftware,KiCad,Pcbnew,(5.99.0-11120-g1d6ad4a52a)*
G04 #@! TF.CreationDate,2021-10-18T08:47:08+02:00*
G04 #@! TF.ProjectId,CarPiPowerHat,43617250-6950-46f7-9765-724861742e6b,0.2*
G04 #@! TF.SameCoordinates,Original*
G04 #@! TF.FileFunction,Soldermask,Bot*
G04 #@! TF.FilePolarity,Negative*
%FSLAX46Y46*%
G04 Gerber Fmt 4.6, Leading zero omitted, Abs format (unit mm)*
G04 Created by KiCad (PCBNEW (5.99.0-11120-g1d6ad4a52a)) date 2021-10-18 08:47:08*
%MOMM*%
%LPD*%
G01*
G04 APERTURE LIST*
G04 Aperture macros list*
%AMRoundRect*
0 Rectangle with rounded corners*
0 $1 Rounding radius*
0 $2 $3 $4 $5 $6 $7 $8 $9 X,Y pos of 4 corners*
0 Add a 4 corners polygon primitive as box body*
4,1,4,$2,$3,$4,$5,$6,$7,$8,$9,$2,$3,0*
0 Add four circle primitives for the rounded corners*
1,1,$1+$1,$2,$3*
1,1,$1+$1,$4,$5*
1,1,$1+$1,$6,$7*
1,1,$1+$1,$8,$9*
0 Add four rect primitives between the rounded corners*
20,1,$1+$1,$2,$3,$4,$5,0*
20,1,$1+$1,$4,$5,$6,$7,0*
20,1,$1+$1,$6,$7,$8,$9,0*
20,1,$1+$1,$8,$9,$2,$3,0*%
G04 Aperture macros list end*
G04 #@! TA.AperFunction,Profile*
%ADD10C,0.100000*%
G04 #@! TD*
G04 #@! TA.AperFunction,Profile*
%ADD11C,0.150000*%
G04 #@! TD*
%ADD12C,6.100000*%
%ADD13C,1.700000*%
%ADD14R,1.000000X1.000000*%
%ADD15O,1.000000X1.000000*%
%ADD16RoundRect,0.100000X2.200000X-0.900000X2.200000X0.900000X-2.200000X0.900000X-2.200000X-0.900000X0*%
%ADD17R,1.700000X1.700000*%
%ADD18O,1.700000X1.700000*%
%ADD19O,1.500000X3.300000*%
%ADD20O,1.500000X2.300000*%
%ADD21C,3.000000*%
%ADD22RoundRect,0.250001X1.099999X1.599999X-1.099999X1.599999X-1.099999X-1.599999X1.099999X-1.599999X0*%
%ADD23O,2.700000X3.700000*%
%ADD24R,1.600000X1.600000*%
%ADD25C,1.600000*%
%ADD26C,2.150000*%
%ADD27R,0.610000X2.000000*%
%ADD28R,2.680000X3.600000*%
%ADD29RoundRect,0.250000X0.600000X0.750000X-0.600000X0.750000X-0.600000X-0.750000X0.600000X-0.750000X0*%
%ADD30O,1.700000X2.000000*%
G04 APERTURE END LIST*
D10*
X81000000Y-116500000D02*
X170500000Y-116500000D01*
X98499997Y-36500003D02*
G75*
G02*
X97500000Y-35500000I3J1000000D01*
G01*
X97500000Y-35500000D02*
X97500000Y-32500000D01*
X96500003Y-31499997D02*
G75*
G02*
X97500000Y-32500000I-3J-1000000D01*
G01*
X113500000Y-36500000D02*
X98500000Y-36500000D01*
X81000000Y-116500000D02*
G75*
G02*
X78005236Y-113500005I5236J2999995D01*
G01*
X78000000Y-34500000D02*
X78005236Y-113500005D01*
X115499997Y-31500003D02*
G75*
G03*
X114500000Y-32500000I0J-999997D01*
G01*
X96500000Y-31500000D02*
X81000000Y-31500000D01*
X173999998Y-34999998D02*
G75*
G03*
X170500000Y-31500000I-3499998J0D01*
G01*
X114500000Y-32500000D02*
X114500000Y-35500000D01*
X170500000Y-31500000D02*
X115500000Y-31500000D01*
X174000000Y-35000000D02*
X174000000Y-113000000D01*
X174000002Y-113000002D02*
G75*
G02*
X170500000Y-116500000I-3500000J2D01*
G01*
D11*
X113500000Y-36500000D02*
G75*
G03*
X114500000Y-35500000I0J1000000D01*
G01*
D10*
X78000000Y-34500000D02*
G75*
G02*
X81000000Y-31500000I3000000J0D01*
G01*
D12*
X130500000Y-35000000D03*
X130500000Y-93000000D03*
X81500000Y-35000000D03*
X81500000Y-93000000D03*
D13*
X130550035Y-112900000D03*
X130550035Y-105900000D03*
D14*
X80850000Y-98550000D03*
D15*
X80850000Y-99820000D03*
X80850000Y-101090000D03*
X80850000Y-102360000D03*
D16*
X167509400Y-45428100D03*
D12*
X170500000Y-35000000D03*
D17*
X146500035Y-45659990D03*
D18*
X149040035Y-45659990D03*
X146500035Y-48199990D03*
X149040035Y-48199990D03*
X146500035Y-50739990D03*
X149040035Y-50739990D03*
D19*
X96350035Y-106949990D03*
X81850035Y-106949990D03*
D20*
X81850035Y-112909990D03*
X96350035Y-112909990D03*
D19*
X121550035Y-106949990D03*
X107050035Y-106949990D03*
D20*
X107050035Y-112909990D03*
X121550035Y-112909990D03*
D21*
X154800000Y-112274990D03*
X163200000Y-112274990D03*
D22*
X163200000Y-104974990D03*
D23*
X159000000Y-104974990D03*
X154800000Y-104974990D03*
X163200000Y-99474990D03*
X159000000Y-99474990D03*
X154800000Y-99474990D03*
D12*
X170500000Y-113000000D03*
D24*
X143000035Y-106559990D03*
D25*
X143000035Y-104559990D03*
X143000035Y-102559990D03*
X143000035Y-100559990D03*
D26*
X145720035Y-107289990D03*
X140280035Y-107289990D03*
X145720035Y-100289990D03*
X140280035Y-100289990D03*
D17*
X129210000Y-39900000D03*
D18*
X131750000Y-39900000D03*
X129210000Y-42440000D03*
X131750000Y-42440000D03*
X129210000Y-44980000D03*
X131750000Y-44980000D03*
X129210000Y-47520000D03*
X131750000Y-47520000D03*
X129210000Y-50060000D03*
X131750000Y-50060000D03*
X129210000Y-52600000D03*
X131750000Y-52600000D03*
X129210000Y-55140000D03*
X131750000Y-55140000D03*
X129210000Y-57680000D03*
X131750000Y-57680000D03*
X129210000Y-60220000D03*
X131750000Y-60220000D03*
X129210000Y-62760000D03*
X131750000Y-62760000D03*
X129210000Y-65300000D03*
X131750000Y-65300000D03*
X129210000Y-67840000D03*
X131750000Y-67840000D03*
X129210000Y-70380000D03*
X131750000Y-70380000D03*
X129210000Y-72920000D03*
X131750000Y-72920000D03*
X129210000Y-75460000D03*
X131750000Y-75460000D03*
X129210000Y-78000000D03*
X131750000Y-78000000D03*
X129210000Y-80540000D03*
X131750000Y-80540000D03*
X129210000Y-83080000D03*
X131750000Y-83080000D03*
X129210000Y-85620000D03*
X131750000Y-85620000D03*
X129210000Y-88160000D03*
X131750000Y-88160000D03*
D27*
X82500000Y-87000000D03*
X83500000Y-87000000D03*
X84500000Y-87000000D03*
X85500000Y-87000000D03*
X86500000Y-87000000D03*
X87500000Y-87000000D03*
X88500000Y-87000000D03*
X89500000Y-87000000D03*
X90500000Y-87000000D03*
X91500000Y-87000000D03*
X92500000Y-87000000D03*
X93500000Y-87000000D03*
X94500000Y-87000000D03*
X95500000Y-87000000D03*
X96500000Y-87000000D03*
D28*
X79510000Y-84200000D03*
X99490000Y-84200000D03*
D29*
X140800035Y-46699990D03*
D30*
X138300035Y-46699990D03*
M02*
