M48
; DRILL file {KiCad (5.99.0-11120-g1d6ad4a52a)} date Wed Aug 25 13:11:18 2021
; FORMAT={-:-/ absolute / inch / decimal}
; #@! TF.CreationDate,2021-08-25T13:11:18+02:00
; #@! TF.GenerationSoftware,Kicad,Pcbnew,(5.99.0-11120-g1d6ad4a52a)
; #@! TF.FileFunction,Plated,1,4,PTH
FMAT,2
INCH
; #@! TA.AperFunction,Plated,PTH,ViaDrill
T1C0.0098
; #@! TA.AperFunction,Plated,PTH,ComponentDrill
T2C0.0098
; #@! TA.AperFunction,Plated,PTH,ComponentDrill
T3C0.0197
; #@! TA.AperFunction,Plated,PTH,ComponentDrill
T4C0.0354
; #@! TA.AperFunction,Plated,PTH,ComponentDrill
T5C0.0362
; #@! TA.AperFunction,Plated,PTH,ComponentDrill
T6C0.0394
; #@! TA.AperFunction,Plated,PTH,ComponentDrill
T7C0.0591
; #@! TA.AperFunction,Plated,PTH,ComponentDrill
T8C0.0709
%
G90
G05
T1
X3.1102Y-1.5157
X3.1102Y-1.7126
X3.1102Y-1.8701
X3.1102Y-2.0669
X3.1102Y-2.5
X3.1102Y-2.6968
X3.1102Y-2.8937
X3.1102Y-3.0886
X3.1102Y-3.5236
X3.1102Y-3.8386
X3.1102Y-4.0354
X3.1102Y-4.2323
X3.1102Y-4.4291
X3.1496Y-4.5079
X3.2283Y-4.5472
X3.248Y-3.4961
X3.2874Y-3.4961
X3.3169Y-3.7776
X3.3268Y-3.4961
X3.3407Y-1.7167
X3.3745Y-4.3819
X3.3858Y-1.2795
X3.3972Y-4.3819
X3.4252Y-4.5472
X3.4414Y-4.3425
X3.4449Y-3.3543
X3.4449Y-3.4752
X3.4641Y-4.3425
X3.4882Y-4.1142
X3.4882Y-4.2559
X3.5453Y-1.4764
X3.5472Y-4.2559
X3.5476Y-4.117
X3.563Y-3.3543
X3.563Y-3.4764
X3.5827Y-1.2795
X3.5974Y-2.2953
X3.6024Y-1.6781
X3.6061Y-4.2557
X3.6063Y-4.1033
X3.622Y-4.5472
X3.6654Y-4.1024
X3.6654Y-4.2559
X3.6801Y-1.5404
X3.6811Y-3.4748
X3.685Y-3.3543
X3.7108Y-3.9533
X3.7303Y-3.9687
X3.7795Y-1.2795
X3.7795Y-1.3976
X3.7894Y-4.0531
X3.7953Y-3.3543
X3.7992Y-3.4744
X3.8189Y-4.5472
X3.8345Y-3.8463
X3.8506Y-3.8624
X3.8701Y-4.3504
X3.878Y-1.4646
X3.8976Y-1.67
X3.8976Y-1.79
X3.8976Y-1.9173
X3.8976Y-2.0059
X3.9173Y-2.1043
X3.9263Y-4.3511
X3.9449Y-2.2953
X3.9469Y-2.3209
X3.9567Y-4.2283
X4.0039Y-4.2992
X4.0039Y-4.3937
X4.0039Y-4.4646
X4.0131Y-1.8
X4.0197Y-1.6693
X4.0354Y-3.9843
X4.063Y-2.2508
X4.0846Y-2.2697
X4.0846Y-2.9114
X4.0846Y-3.2362
X4.0846Y-3.5315
X4.0846Y-3.7874
X4.0945Y-4.063
X4.1102Y-4.5039
X4.1142Y-2.7146
X4.1331Y-1.8
X4.1339Y-1.6693
X4.1634Y-1.4646
X4.1634Y-2.3898
X4.1634Y-2.5177
X4.1634Y-2.626
X4.2126Y-4.5472
X4.221Y-3.8189
X4.2421Y-3.7913
X4.252Y-1.6693
X4.252Y-1.8
X4.2579Y-4.2933
X4.2638Y-3.811
X4.2756Y-4.2736
X4.2992Y-4.2579
X4.311Y-2.9626
X4.311Y-3.1791
X4.311Y-3.3465
X4.311Y-3.5335
X4.311Y-3.7106
X4.311Y-3.878
X4.3504Y-2.874
X4.4095Y-3.878
X4.4095Y-4.5472
X4.4291Y-2.874
X4.439Y-1.4646
X4.4646Y-3.4449
X4.4803Y-2.8976
X4.4803Y-4.1142
X4.4803Y-4.252
X4.4882Y-1.8701
X4.4882Y-2.0669
X4.4882Y-2.2244
X4.4882Y-2.3425
X4.4882Y-2.5
X4.4882Y-2.6575
X4.4961Y-3.3386
X4.5394Y-4.1142
X4.5394Y-4.252
X4.5669Y-1.2795
X4.5669Y-1.3976
X4.5669Y-3.878
X4.5709Y-3.3386
X4.5768Y-2.9626
X4.5768Y-3.1791
X4.5768Y-3.6319
X4.5866Y-3.75
X4.5984Y-4.1142
X4.5984Y-4.252
X4.6063Y-4.5472
X4.6575Y-4.1142
X4.6575Y-4.252
X4.6831Y-3.9449
X4.6831Y-4.0039
X4.6831Y-4.0728
X4.685Y-3.6319
X4.7441Y-2.7598
X4.7441Y-3.878
X4.7539Y-4.0551
X4.7638Y-1.2795
X4.7638Y-3.4744
X4.7638Y-3.6417
X4.7736Y-2.9626
X4.7736Y-3.1201
X4.7736Y-3.7598
X4.7756Y-3.2992
X4.7795Y-3.2244
X4.7835Y-2.874
X4.8032Y-4.5472
X4.8543Y-2.9606
X4.8543Y-3.4724
X4.8622Y-3.6024
X4.8819Y-2.874
X4.8819Y-3.8878
X4.9016Y-3.6909
X4.9016Y-3.7598
X4.9213Y-4.0846
X4.9213Y-4.1929
X4.9213Y-4.311
X4.9528Y-3.5512
X4.9528Y-3.6024
X4.9606Y-1.2795
X4.9606Y-4.5472
X4.9685Y-3.4488
X4.9705Y-3.8091
X4.9961Y-3.6614
X4.9961Y-3.7441
X4.998Y-2.5591
X5.0Y-2.9331
X5.0Y-2.3819
X5.0Y-2.8012
X5.0039Y-3.5197
X5.0039Y-3.5669
X5.0157Y-3.3228
X5.1181Y-4.0748
X5.1378Y-2.0256
X5.1378Y-4.3406
X5.1417Y-2.4114
X5.1575Y-2.8228
X5.1575Y-4.5472
X5.1673Y-3.8091
X5.2264Y-2.4193
X5.2362Y-1.8189
X5.25Y-2.5039
X5.2579Y-2.7205
X5.2579Y-2.1713
X5.2638Y-2.4449
X5.2657Y-2.8445
X5.2913Y-2.6181
X5.3032Y-3.7362
X5.3051Y-2.7992
X5.3051Y-3.1772
X5.311Y-1.6969
X5.3346Y-1.2638
X5.3543Y-2.3799
X5.3543Y-2.4587
X5.3543Y-4.5472
X5.3602Y-2.7736
X5.3602Y-2.8445
X5.3642Y-3.8189
X5.3642Y-3.9665
X5.3642Y-4.1535
X5.3642Y-4.3406
X5.3701Y-3.5433
X5.3858Y-3.4016
X5.4114Y-2.7992
X5.4213Y-1.2638
X5.437Y-3.7362
X5.437Y-3.8228
X5.437Y-4.1575
X5.437Y-4.3425
X5.4528Y-2.3799
X5.4528Y-2.4587
X5.4567Y-3.315
X5.4567Y-3.3425
X5.4567Y-3.3701
X5.4606Y-2.8701
X5.4626Y-3.1772
X5.4724Y-4.5472
X5.5157Y-2.8228
X5.5315Y-2.0059
X5.5354Y-3.1772
X5.5512Y-1.2795
X5.5709Y-2.7638
X5.5748Y-2.878
X5.5906Y-2.3209
X5.6102Y-2.1437
X5.6161Y-3.5413
X5.6201Y-2.3406
X5.6299Y-4.5472
X5.6693Y-3.4606
X5.689Y-2.0059
X5.6988Y-2.3701
X5.6988Y-2.4882
X5.752Y-3.2087
X5.752Y-3.4606
X5.7579Y-2.4291
X5.7874Y-2.1437
X5.7874Y-2.3996
X5.7874Y-2.4685
X5.7874Y-1.2795
X5.7874Y-4.5472
X5.8268Y-2.2224
X5.8346Y-3.4606
X5.8366Y-3.8386
X5.8366Y-4.0945
X5.8366Y-4.3307
X5.8465Y-2.8937
X5.876Y-2.3996
X5.876Y-2.4685
X5.8996Y-1.4134
X5.9016Y-3.7441
X5.9075Y-1.8504
X5.9173Y-2.7047
X5.935Y-2.1535
X5.9429Y-3.8386
X5.9429Y-4.0039
X5.9429Y-4.2598
X5.9843Y-1.2795
X5.9843Y-4.5472
X5.9941Y-2.0059
X5.9961Y-4.1339
X6.0335Y-2.9409
X6.0335Y-3.0492
X6.0335Y-3.1772
X6.0335Y-3.3051
X6.0355Y-3.4351
X6.0394Y-2.3661
X6.0433Y-3.626
X6.0433Y-3.7441
X6.0551Y-2.6161
X6.0945Y-4.2441
X6.1024Y-1.7794
X6.1024Y-1.8071
X6.1024Y-1.8386
X6.1614Y-2.9508
X6.1614Y-3.5217
X6.1614Y-3.7146
X6.1614Y-3.8091
X6.1772Y-4.1339
X6.1791Y-3.435
X6.1811Y-3.0492
X6.1811Y-3.1772
X6.1811Y-3.3051
X6.1811Y-1.2795
X6.1811Y-4.5472
X6.2559Y-2.1535
X6.3109Y-3.3266
X6.3465Y-2.626
X6.3583Y-2.4449
X6.3583Y-2.7441
X6.3583Y-2.9016
X6.3583Y-3.0591
X6.3583Y-3.2165
X6.378Y-1.2795
X6.378Y-4.5472
X6.3947Y-1.7373
X6.3947Y-1.7885
X6.3947Y-1.8416
X6.3947Y-1.883
X6.3947Y-1.9223
X6.4173Y-3.6122
X6.4173Y-3.6614
X6.4173Y-3.7106
X6.4341Y-1.9223
X6.437Y-2.4685
X6.437Y-2.5866
X6.437Y-2.7441
X6.437Y-2.9016
X6.437Y-3.0591
X6.45Y-1.7885
X6.4509Y-3.2165
X6.4528Y-1.7362
X6.4528Y-1.8406
X6.4528Y-1.8661
X6.4547Y-3.5748
X6.4567Y-3.7402
X6.4695Y-1.9223
X6.4813Y-1.7373
X6.4823Y-1.8406
X6.4823Y-1.8661
X6.4852Y-1.7885
X6.4892Y-1.8924
X6.4925Y-1.4861
X6.5039Y-3.5748
X6.5059Y-3.7402
X6.5109Y-3.3266
X6.5171Y-1.9759
X6.5171Y-2.0054
X6.5171Y-2.057
X6.5171Y-2.0877
X6.5748Y-1.2795
X6.5748Y-4.311
X6.5748Y-4.5472
X6.5931Y-2.1562
X6.6203Y-1.9428
X6.6616Y-2.005
X6.6616Y-2.0566
X6.6616Y-2.0873
X6.662Y-1.9723
X6.7057Y-1.7417
X6.7057Y-1.7845
X6.7057Y-1.8287
X6.7175Y-1.5365
X6.7402Y-2.6378
X6.7638Y-1.7373
X6.7638Y-1.7963
X6.7638Y-1.8436
X6.7638Y-1.8948
X6.7638Y-1.9341
X6.7677Y-1.6743
X6.7913Y-1.5236
X6.7913Y-2.1142
X6.7913Y-2.2717
X6.7913Y-2.5866
X6.7913Y-3.0591
X6.7913Y-3.374
X6.7913Y-3.689
X6.7913Y-4.0039
X6.7992Y-1.6743
X6.7992Y-1.7373
X6.7992Y-1.7963
X6.7992Y-1.8436
X6.7992Y-1.8948
X6.7992Y-1.9341
X6.811Y-4.311
T2
X6.5181Y-1.7629
X6.5181Y-1.8141
X6.5693Y-1.7629
X6.5693Y-1.8141
X6.6204Y-1.7629
X6.6204Y-1.8141
X6.6716Y-1.7629
X6.6716Y-1.8141
T3
X3.1886Y-3.9177
X3.1886Y-3.9571
X3.1886Y-3.9965
X3.1886Y-4.0358
T5
X5.6299Y-3.9591
X5.6299Y-4.0378
X5.6299Y-4.1165
X5.6299Y-4.1953
T6
X5.087Y-1.5709
X5.087Y-1.6709
X5.087Y-1.7709
X5.087Y-1.8709
X5.087Y-1.9709
X5.087Y-2.0709
X5.087Y-2.1709
X5.087Y-2.2709
X5.087Y-2.3709
X5.087Y-2.4709
X5.087Y-2.5709
X5.087Y-2.6709
X5.087Y-2.7709
X5.087Y-2.8709
X5.087Y-2.9709
X5.087Y-3.0709
X5.087Y-3.1709
X5.087Y-3.2709
X5.087Y-3.3709
X5.087Y-3.4709
X5.187Y-1.5709
X5.187Y-1.6709
X5.187Y-1.7709
X5.187Y-1.8709
X5.187Y-1.9709
X5.187Y-2.0709
X5.187Y-2.1709
X5.187Y-2.2709
X5.187Y-2.3709
X5.187Y-2.4709
X5.187Y-2.5709
X5.187Y-2.6709
X5.187Y-2.7709
X5.187Y-2.8709
X5.187Y-2.9709
X5.187Y-3.0709
X5.187Y-3.1709
X5.187Y-3.2709
X5.187Y-3.3709
X5.187Y-3.4709
X5.6012Y-2.4327
X5.6996Y-2.4327
T7
X5.5228Y-3.9484
X5.5228Y-4.224
X5.737Y-3.9484
X5.737Y-4.224
T8
X6.0945Y-3.9163
X6.0945Y-4.1329
X6.2598Y-3.9163
X6.2598Y-4.1329
X6.4252Y-3.9163
X6.4252Y-4.1329
T4
G00X3.2224Y-4.1752
M15
G01X3.2224Y-4.2461
M16
G05
G00X3.2224Y-4.4295
M15
G01X3.2224Y-4.461
M16
G05
G00X3.7933Y-4.1752
M15
G01X3.7933Y-4.2461
M16
G05
G00X3.7933Y-4.4295
M15
G01X3.7933Y-4.461
M16
G05
G00X4.2146Y-4.1752
M15
G01X4.2146Y-4.2461
M16
G05
G00X4.2146Y-4.4295
M15
G01X4.2146Y-4.461
M16
G05
G00X4.7854Y-4.1752
M15
G01X4.7854Y-4.2461
M16
G05
G00X4.7854Y-4.4295
M15
G01X4.7854Y-4.461
M16
G05
T0
M30
