G04 #@! TF.GenerationSoftware,KiCad,Pcbnew,(5.99.0-11120-g1d6ad4a52a)*
G04 #@! TF.CreationDate,2021-10-18T08:47:08+02:00*
G04 #@! TF.ProjectId,CarPiPowerHat,43617250-6950-46f7-9765-724861742e6b,0.2*
G04 #@! TF.SameCoordinates,Original*
G04 #@! TF.FileFunction,Legend,Bot*
G04 #@! TF.FilePolarity,Positive*
%FSLAX46Y46*%
G04 Gerber Fmt 4.6, Leading zero omitted, Abs format (unit mm)*
G04 Created by KiCad (PCBNEW (5.99.0-11120-g1d6ad4a52a)) date 2021-10-18 08:47:08*
%MOMM*%
%LPD*%
G01*
G04 APERTURE LIST*
G04 #@! TA.AperFunction,Profile*
%ADD10C,0.100000*%
G04 #@! TD*
G04 #@! TA.AperFunction,Profile*
%ADD11C,0.150000*%
G04 #@! TD*
%ADD12C,0.300000*%
%ADD13C,0.254000*%
%ADD14C,0.150000*%
%ADD15C,0.120000*%
%ADD16C,0.100000*%
%ADD17C,0.200000*%
G04 APERTURE END LIST*
D10*
X81000000Y-116500000D02*
X170500000Y-116500000D01*
X98499997Y-36500003D02*
G75*
G02*
X97500000Y-35500000I3J1000000D01*
G01*
X97500000Y-35500000D02*
X97500000Y-32500000D01*
X96500003Y-31499997D02*
G75*
G02*
X97500000Y-32500000I-3J-1000000D01*
G01*
X113500000Y-36500000D02*
X98500000Y-36500000D01*
X81000000Y-116500000D02*
G75*
G02*
X78005236Y-113500005I5236J2999995D01*
G01*
X78000000Y-34500000D02*
X78005236Y-113500005D01*
X115499997Y-31500003D02*
G75*
G03*
X114500000Y-32500000I0J-999997D01*
G01*
X96500000Y-31500000D02*
X81000000Y-31500000D01*
X173999998Y-34999998D02*
G75*
G03*
X170500000Y-31500000I-3499998J0D01*
G01*
X114500000Y-32500000D02*
X114500000Y-35500000D01*
X170500000Y-31500000D02*
X115500000Y-31500000D01*
X174000000Y-35000000D02*
X174000000Y-113000000D01*
X174000002Y-113000002D02*
G75*
G02*
X170500000Y-116500000I-3500000J2D01*
G01*
D11*
X113500000Y-36500000D02*
G75*
G03*
X114500000Y-35500000I0J1000000D01*
G01*
D10*
X78000000Y-34500000D02*
G75*
G02*
X81000000Y-31500000I3000000J0D01*
G01*
D12*
X138271463Y-42707132D02*
X137128606Y-42707132D01*
X137700035Y-43278561D02*
X137700035Y-42135704D01*
D13*
X90528095Y-77504523D02*
X90528095Y-78411666D01*
X90588571Y-78593095D01*
X90709523Y-78714047D01*
X90890952Y-78774523D01*
X91011904Y-78774523D01*
X89258095Y-78774523D02*
X89983809Y-78774523D01*
X89620952Y-78774523D02*
X89620952Y-77504523D01*
X89741904Y-77685952D01*
X89862857Y-77806904D01*
X89983809Y-77867380D01*
X88471904Y-77504523D02*
X88350952Y-77504523D01*
X88230000Y-77565000D01*
X88169523Y-77625476D01*
X88109047Y-77746428D01*
X88048571Y-77988333D01*
X88048571Y-78290714D01*
X88109047Y-78532619D01*
X88169523Y-78653571D01*
X88230000Y-78714047D01*
X88350952Y-78774523D01*
X88471904Y-78774523D01*
X88592857Y-78714047D01*
X88653333Y-78653571D01*
X88713809Y-78532619D01*
X88774285Y-78290714D01*
X88774285Y-77988333D01*
X88713809Y-77746428D01*
X88653333Y-77625476D01*
X88592857Y-77565000D01*
X88471904Y-77504523D01*
D14*
X139983368Y-42202370D02*
X139983368Y-42916656D01*
X140030987Y-43059513D01*
X140126225Y-43154751D01*
X140269082Y-43202370D01*
X140364320Y-43202370D01*
X139364320Y-42630942D02*
X139459558Y-42583323D01*
X139507177Y-42535704D01*
X139554796Y-42440466D01*
X139554796Y-42392847D01*
X139507177Y-42297609D01*
X139459558Y-42249990D01*
X139364320Y-42202370D01*
X139173844Y-42202370D01*
X139078606Y-42249990D01*
X139030987Y-42297609D01*
X138983368Y-42392847D01*
X138983368Y-42440466D01*
X139030987Y-42535704D01*
X139078606Y-42583323D01*
X139173844Y-42630942D01*
X139364320Y-42630942D01*
X139459558Y-42678561D01*
X139507177Y-42726180D01*
X139554796Y-42821418D01*
X139554796Y-43011894D01*
X139507177Y-43107132D01*
X139459558Y-43154751D01*
X139364320Y-43202370D01*
X139173844Y-43202370D01*
X139078606Y-43154751D01*
X139030987Y-43107132D01*
X138983368Y-43011894D01*
X138983368Y-42821418D01*
X139030987Y-42726180D01*
X139078606Y-42678561D01*
X139173844Y-42630942D01*
D15*
X129210000Y-38570000D02*
X127880000Y-38570000D01*
X130480000Y-38570000D02*
X130480000Y-41170000D01*
X127880000Y-41170000D02*
X127880000Y-89490000D01*
X133080000Y-38570000D02*
X130480000Y-38570000D01*
X133080000Y-38570000D02*
X133080000Y-89490000D01*
X133080000Y-89490000D02*
X127880000Y-89490000D01*
X130480000Y-41170000D02*
X127880000Y-41170000D01*
X127880000Y-38570000D02*
X127880000Y-39900000D01*
D16*
X100960000Y-81500000D02*
X100960000Y-80600000D01*
D17*
X82300000Y-88900000D02*
X82300000Y-88900000D01*
X82400000Y-88900000D02*
X82400000Y-88900000D01*
D16*
X78040000Y-80600000D02*
X78040000Y-81750000D01*
X100960000Y-80600000D02*
X100960000Y-80600000D01*
X78040000Y-80600000D02*
X78040000Y-80600000D01*
D17*
X82300000Y-88900000D02*
X82300000Y-88900000D01*
D16*
X100960000Y-80600000D02*
X100960000Y-80600000D01*
X100960000Y-80600000D02*
X100960000Y-81500000D01*
X100960000Y-81500000D02*
X100960000Y-81500000D01*
X100960000Y-80600000D02*
X78040000Y-80600000D01*
X78040000Y-80600000D02*
X100960000Y-80600000D01*
X78040000Y-81750000D02*
X78040000Y-81750000D01*
X78040000Y-81750000D02*
X78040000Y-80600000D01*
X78040000Y-80600000D02*
X78040000Y-80600000D01*
D17*
X82400000Y-88900000D02*
G75*
G03*
X82300000Y-88900000I-50000J0D01*
G01*
X82300000Y-88900000D02*
G75*
G03*
X82400000Y-88900000I50000J0D01*
G01*
X82400000Y-88900000D02*
G75*
G03*
X82300000Y-88900000I-50000J0D01*
G01*
D15*
X138550035Y-49899990D02*
X138550035Y-55399990D01*
X139550035Y-56009990D02*
X143360035Y-56009990D01*
X141050035Y-49899990D02*
X141050035Y-55399990D01*
X135740035Y-44289990D02*
X137160035Y-44289990D01*
X141050035Y-55399990D02*
X140550035Y-55399990D01*
X143360035Y-56009990D02*
X143360035Y-44289990D01*
X140800035Y-45199990D02*
X141100035Y-44599990D01*
X140500035Y-44599990D02*
X140800035Y-45199990D01*
X137160035Y-44289990D02*
X137160035Y-48789990D01*
X138050035Y-55399990D02*
X138050035Y-49899990D01*
X139550035Y-56009990D02*
X135740035Y-56009990D01*
X138550035Y-55399990D02*
X138050035Y-55399990D01*
X141940035Y-48789990D02*
X139550035Y-48789990D01*
X137160035Y-48789990D02*
X139550035Y-48789990D01*
X140550035Y-49899990D02*
X141050035Y-49899990D01*
X138050035Y-49899990D02*
X138550035Y-49899990D01*
X141940035Y-44289990D02*
X141940035Y-48789990D01*
X141100035Y-44599990D02*
X140500035Y-44599990D01*
X135740035Y-56009990D02*
X135740035Y-44289990D01*
X140550035Y-55399990D02*
X140550035Y-49899990D01*
X143360035Y-44289990D02*
X141940035Y-44289990D01*
M02*
