G04 #@! TF.GenerationSoftware,KiCad,Pcbnew,(5.99.0-11120-g1d6ad4a52a)*
G04 #@! TF.CreationDate,2021-10-18T08:47:08+02:00*
G04 #@! TF.ProjectId,CarPiPowerHat,43617250-6950-46f7-9765-724861742e6b,0.2*
G04 #@! TF.SameCoordinates,Original*
G04 #@! TF.FileFunction,Paste,Top*
G04 #@! TF.FilePolarity,Positive*
%FSLAX46Y46*%
G04 Gerber Fmt 4.6, Leading zero omitted, Abs format (unit mm)*
G04 Created by KiCad (PCBNEW (5.99.0-11120-g1d6ad4a52a)) date 2021-10-18 08:47:08*
%MOMM*%
%LPD*%
G01*
G04 APERTURE LIST*
G04 Aperture macros list*
%AMRoundRect*
0 Rectangle with rounded corners*
0 $1 Rounding radius*
0 $2 $3 $4 $5 $6 $7 $8 $9 X,Y pos of 4 corners*
0 Add a 4 corners polygon primitive as box body*
4,1,4,$2,$3,$4,$5,$6,$7,$8,$9,$2,$3,0*
0 Add four circle primitives for the rounded corners*
1,1,$1+$1,$2,$3*
1,1,$1+$1,$4,$5*
1,1,$1+$1,$6,$7*
1,1,$1+$1,$8,$9*
0 Add four rect primitives between the rounded corners*
20,1,$1+$1,$2,$3,$4,$5,0*
20,1,$1+$1,$4,$5,$6,$7,0*
20,1,$1+$1,$6,$7,$8,$9,0*
20,1,$1+$1,$8,$9,$2,$3,0*%
G04 Aperture macros list end*
G04 #@! TA.AperFunction,Profile*
%ADD10C,0.100000*%
G04 #@! TD*
G04 #@! TA.AperFunction,Profile*
%ADD11C,0.150000*%
G04 #@! TD*
%ADD12RoundRect,0.135000X0.185000X-0.135000X0.185000X0.135000X-0.185000X0.135000X-0.185000X-0.135000X0*%
%ADD13RoundRect,0.200000X0.275000X-0.200000X0.275000X0.200000X-0.275000X0.200000X-0.275000X-0.200000X0*%
%ADD14R,0.600000X1.550000*%
%ADD15R,2.800000X2.600000*%
%ADD16R,2.800000X2.200000*%
%ADD17R,2.800000X2.800000*%
%ADD18R,0.600000X0.450000*%
%ADD19R,0.650000X1.700000*%
%ADD20RoundRect,0.225000X0.250000X-0.225000X0.250000X0.225000X-0.250000X0.225000X-0.250000X-0.225000X0*%
%ADD21RoundRect,0.250000X-0.262500X-0.450000X0.262500X-0.450000X0.262500X0.450000X-0.262500X0.450000X0*%
%ADD22RoundRect,0.250000X0.550000X-1.500000X0.550000X1.500000X-0.550000X1.500000X-0.550000X-1.500000X0*%
%ADD23RoundRect,0.140000X0.140000X0.170000X-0.140000X0.170000X-0.140000X-0.170000X0.140000X-0.170000X0*%
%ADD24R,0.800000X0.900000*%
%ADD25RoundRect,0.250000X0.337500X0.475000X-0.337500X0.475000X-0.337500X-0.475000X0.337500X-0.475000X0*%
%ADD26RoundRect,0.250001X0.624999X-0.462499X0.624999X0.462499X-0.624999X0.462499X-0.624999X-0.462499X0*%
%ADD27R,1.800000X1.000000*%
%ADD28RoundRect,0.140000X0.170000X-0.140000X0.170000X0.140000X-0.170000X0.140000X-0.170000X-0.140000X0*%
%ADD29R,0.600000X0.900000*%
%ADD30R,1.000000X0.400000*%
%ADD31RoundRect,0.250000X0.250000X0.475000X-0.250000X0.475000X-0.250000X-0.475000X0.250000X-0.475000X0*%
%ADD32RoundRect,0.250000X0.460000X-0.315000X0.460000X0.315000X-0.460000X0.315000X-0.460000X-0.315000X0*%
%ADD33RoundRect,0.150000X0.150000X-0.737500X0.150000X0.737500X-0.150000X0.737500X-0.150000X-0.737500X0*%
%ADD34RoundRect,0.135000X-0.185000X0.135000X-0.185000X-0.135000X0.185000X-0.135000X0.185000X0.135000X0*%
%ADD35RoundRect,0.250000X-0.250000X-0.475000X0.250000X-0.475000X0.250000X0.475000X-0.250000X0.475000X0*%
%ADD36RoundRect,0.250000X0.450000X-0.262500X0.450000X0.262500X-0.450000X0.262500X-0.450000X-0.262500X0*%
%ADD37RoundRect,0.150000X-0.587500X-0.150000X0.587500X-0.150000X0.587500X0.150000X-0.587500X0.150000X0*%
%ADD38RoundRect,0.225000X0.225000X0.250000X-0.225000X0.250000X-0.225000X-0.250000X0.225000X-0.250000X0*%
%ADD39RoundRect,0.225000X-0.225000X-0.250000X0.225000X-0.250000X0.225000X0.250000X-0.225000X0.250000X0*%
%ADD40RoundRect,0.200000X-0.275000X0.200000X-0.275000X-0.200000X0.275000X-0.200000X0.275000X0.200000X0*%
%ADD41RoundRect,0.150000X-0.825000X-0.150000X0.825000X-0.150000X0.825000X0.150000X-0.825000X0.150000X0*%
%ADD42R,5.080000X1.270000*%
%ADD43R,3.960000X3.960000*%
%ADD44RoundRect,0.250000X-0.475000X0.250000X-0.475000X-0.250000X0.475000X-0.250000X0.475000X0.250000X0*%
%ADD45RoundRect,0.140000X-0.170000X0.140000X-0.170000X-0.140000X0.170000X-0.140000X0.170000X0.140000X0*%
%ADD46R,0.900000X0.800000*%
%ADD47RoundRect,0.150000X0.587500X0.150000X-0.587500X0.150000X-0.587500X-0.150000X0.587500X-0.150000X0*%
%ADD48R,1.000000X0.600000*%
%ADD49R,0.420000X0.700000*%
%ADD50RoundRect,0.237500X-0.300000X-0.237500X0.300000X-0.237500X0.300000X0.237500X-0.300000X0.237500X0*%
%ADD51RoundRect,0.225000X-0.250000X0.225000X-0.250000X-0.225000X0.250000X-0.225000X0.250000X0.225000X0*%
%ADD52RoundRect,0.250000X-0.337500X-0.475000X0.337500X-0.475000X0.337500X0.475000X-0.337500X0.475000X0*%
%ADD53RoundRect,0.250000X-0.350000X-0.450000X0.350000X-0.450000X0.350000X0.450000X-0.350000X0.450000X0*%
%ADD54R,0.300000X2.600000*%
%ADD55RoundRect,0.250000X0.412500X0.650000X-0.412500X0.650000X-0.412500X-0.650000X0.412500X-0.650000X0*%
%ADD56RoundRect,0.250000X-0.450000X0.350000X-0.450000X-0.350000X0.450000X-0.350000X0.450000X0.350000X0*%
%ADD57RoundRect,0.140000X-0.140000X-0.170000X0.140000X-0.170000X0.140000X0.170000X-0.140000X0.170000X0*%
%ADD58RoundRect,0.218750X-0.218750X-0.256250X0.218750X-0.256250X0.218750X0.256250X-0.218750X0.256250X0*%
%ADD59R,3.150000X1.960000*%
%ADD60R,2.350000X5.100000*%
%ADD61RoundRect,0.250000X0.475000X-0.250000X0.475000X0.250000X-0.475000X0.250000X-0.475000X-0.250000X0*%
%ADD62RoundRect,0.250000X1.025000X-0.787500X1.025000X0.787500X-1.025000X0.787500X-1.025000X-0.787500X0*%
%ADD63RoundRect,0.200000X-0.200000X-0.275000X0.200000X-0.275000X0.200000X0.275000X-0.200000X0.275000X0*%
%ADD64R,2.500000X2.300000*%
%ADD65RoundRect,0.250000X-0.550000X1.500000X-0.550000X-1.500000X0.550000X-1.500000X0.550000X1.500000X0*%
%ADD66RoundRect,0.150000X-0.150000X0.587500X-0.150000X-0.587500X0.150000X-0.587500X0.150000X0.587500X0*%
%ADD67RoundRect,0.200000X0.200000X0.275000X-0.200000X0.275000X-0.200000X-0.275000X0.200000X-0.275000X0*%
%ADD68R,0.610000X2.000000*%
%ADD69R,2.680000X3.600000*%
G04 APERTURE END LIST*
D10*
X81000000Y-116500000D02*
X170500000Y-116500000D01*
X98499997Y-36500003D02*
G75*
G02*
X97500000Y-35500000I3J1000000D01*
G01*
X97500000Y-35500000D02*
X97500000Y-32500000D01*
X96500003Y-31499997D02*
G75*
G02*
X97500000Y-32500000I-3J-1000000D01*
G01*
X113500000Y-36500000D02*
X98500000Y-36500000D01*
X81000000Y-116500000D02*
G75*
G02*
X78005236Y-113500005I5236J2999995D01*
G01*
X78000000Y-34500000D02*
X78005236Y-113500005D01*
X115499997Y-31500003D02*
G75*
G03*
X114500000Y-32500000I0J-999997D01*
G01*
X96500000Y-31500000D02*
X81000000Y-31500000D01*
X173999998Y-34999998D02*
G75*
G03*
X170500000Y-31500000I-3499998J0D01*
G01*
X114500000Y-32500000D02*
X114500000Y-35500000D01*
X170500000Y-31500000D02*
X115500000Y-31500000D01*
X174000000Y-35000000D02*
X174000000Y-113000000D01*
X174000002Y-113000002D02*
G75*
G02*
X170500000Y-116500000I-3500000J2D01*
G01*
D11*
X113500000Y-36500000D02*
G75*
G03*
X114500000Y-35500000I0J1000000D01*
G01*
D10*
X78000000Y-34500000D02*
G75*
G02*
X81000000Y-31500000I3000000J0D01*
G01*
D12*
X168250035Y-39659990D03*
X168250035Y-38639990D03*
X165600035Y-40797000D03*
X165600035Y-39777000D03*
D13*
X136400000Y-78225000D03*
X136400000Y-76575000D03*
D14*
X138705000Y-69000000D03*
X137435000Y-69000000D03*
X136165000Y-69000000D03*
X134895000Y-69000000D03*
X134895000Y-74400000D03*
X136165000Y-74400000D03*
X137435000Y-74400000D03*
X138705000Y-74400000D03*
D13*
X134800000Y-78225000D03*
X134800000Y-76575000D03*
D12*
X98800035Y-113609990D03*
X98800035Y-112589990D03*
D15*
X129800035Y-100600000D03*
D16*
X126850035Y-112000000D03*
X134250035Y-114000000D03*
D17*
X134250035Y-104600000D03*
D18*
X147650035Y-86599990D03*
X149750035Y-86599990D03*
D19*
X147195035Y-63449990D03*
X148465035Y-63449990D03*
X149735035Y-63449990D03*
X151005035Y-63449990D03*
X151005035Y-56149990D03*
X149735035Y-56149990D03*
X148465035Y-56149990D03*
X147195035Y-56149990D03*
D20*
X112450000Y-73375000D03*
X112450000Y-71825000D03*
D21*
X121087500Y-92800000D03*
X122912500Y-92800000D03*
D22*
X112650000Y-68250000D03*
X112650000Y-62850000D03*
D23*
X166905000Y-57227000D03*
X165945000Y-57227000D03*
D24*
X90950035Y-35399990D03*
X89050035Y-35399990D03*
X90000035Y-37399990D03*
D25*
X116037535Y-56699990D03*
X113962535Y-56699990D03*
D26*
X159400035Y-95187490D03*
X159400035Y-92212490D03*
D27*
X80555000Y-42255000D03*
X80555000Y-39755000D03*
D28*
X171084400Y-47408100D03*
X171084400Y-46448100D03*
D29*
X143450035Y-93949990D03*
X142500035Y-93949990D03*
X141550035Y-93949990D03*
X141550035Y-96749990D03*
X143450035Y-96749990D03*
D30*
X123050000Y-76075000D03*
X123050000Y-75425000D03*
X123050000Y-74775000D03*
X123050000Y-74125000D03*
X123050000Y-73475000D03*
X123050000Y-72825000D03*
X123050000Y-72175000D03*
X123050000Y-71525000D03*
X117250000Y-71525000D03*
X117250000Y-72175000D03*
X117250000Y-72825000D03*
X117250000Y-73475000D03*
X117250000Y-74125000D03*
X117250000Y-74775000D03*
X117250000Y-75425000D03*
X117250000Y-76075000D03*
D31*
X166615000Y-54767000D03*
X164715000Y-54767000D03*
D32*
X166659400Y-44748100D03*
X168359400Y-44748100D03*
X168359400Y-46108100D03*
X166659400Y-46108100D03*
D33*
X165604400Y-47990600D03*
X166874400Y-47990600D03*
X168144400Y-47990600D03*
X169414400Y-47990600D03*
X169414400Y-42865600D03*
X168144400Y-42865600D03*
X166874400Y-42865600D03*
X165604400Y-42865600D03*
D34*
X169600000Y-39818100D03*
X169600000Y-40838100D03*
D35*
X152350000Y-89050000D03*
X154250000Y-89050000D03*
D36*
X118200000Y-61287500D03*
X118200000Y-59462500D03*
D37*
X116062535Y-52749990D03*
X116062535Y-54649990D03*
X117937535Y-53699990D03*
D35*
X167350035Y-67499990D03*
X169250035Y-67499990D03*
D38*
X126175035Y-102350000D03*
X124625035Y-102350000D03*
D39*
X133125035Y-100350000D03*
X134675035Y-100350000D03*
D21*
X114237500Y-59250000D03*
X116062500Y-59250000D03*
D28*
X156900035Y-66259990D03*
X156900035Y-65299990D03*
D13*
X138000000Y-78225000D03*
X138000000Y-76575000D03*
D23*
X167880035Y-40828100D03*
X166920035Y-40828100D03*
D40*
X150100035Y-68574990D03*
X150100035Y-70224990D03*
D34*
X164000035Y-59589990D03*
X164000035Y-60609990D03*
D41*
X83180000Y-39800000D03*
X83180000Y-41070000D03*
X83180000Y-42340000D03*
X83180000Y-43610000D03*
X88130000Y-43610000D03*
X88130000Y-42340000D03*
X88130000Y-41070000D03*
X88130000Y-39800000D03*
D39*
X123275000Y-60500000D03*
X124825000Y-60500000D03*
D31*
X166615000Y-52667000D03*
X164715000Y-52667000D03*
D35*
X168315000Y-52667000D03*
X170215000Y-52667000D03*
D42*
X88440000Y-47255000D03*
X88440000Y-69225000D03*
D43*
X88440000Y-58240000D03*
D44*
X157175000Y-47799990D03*
X157175000Y-49699990D03*
D13*
X125150000Y-72125000D03*
X125150000Y-70475000D03*
D45*
X170750000Y-39848100D03*
X170750000Y-40808100D03*
D37*
X145462535Y-82349990D03*
X145462535Y-84249990D03*
X147337535Y-83299990D03*
D46*
X165525000Y-60677000D03*
X167525000Y-59727000D03*
X165525000Y-58777000D03*
D47*
X157937535Y-61549990D03*
X157937535Y-59649990D03*
X156062535Y-60599990D03*
D34*
X104400035Y-112689990D03*
X104400035Y-113709990D03*
D48*
X167790000Y-64957000D03*
D49*
X167550000Y-65727000D03*
D48*
X166660000Y-64247000D03*
D49*
X168200000Y-65727000D03*
D48*
X167790000Y-64247000D03*
D49*
X166900000Y-65727000D03*
X166250000Y-65727000D03*
D48*
X166660000Y-64957000D03*
D49*
X168200000Y-62727000D03*
X167550000Y-62727000D03*
X166900000Y-62727000D03*
X166250000Y-62727000D03*
D35*
X168315000Y-50567000D03*
X170215000Y-50567000D03*
D40*
X142200035Y-60774990D03*
X142200035Y-62424990D03*
X141800035Y-56574990D03*
X141800035Y-58224990D03*
D50*
X143537500Y-91950000D03*
X145262500Y-91950000D03*
D51*
X166950035Y-37774990D03*
X166950035Y-39324990D03*
D28*
X165684400Y-38708100D03*
X165684400Y-37748100D03*
D40*
X148500035Y-68574990D03*
X148500035Y-70224990D03*
D52*
X119962535Y-51999990D03*
X122037535Y-51999990D03*
D31*
X149650035Y-89099990D03*
X147750035Y-89099990D03*
D53*
X150850035Y-78999990D03*
X152850035Y-78999990D03*
D54*
X93600035Y-106219990D03*
X93100035Y-106219990D03*
X92600035Y-106219990D03*
X92100035Y-106219990D03*
X91600035Y-106219990D03*
X91100035Y-106219990D03*
X90600035Y-106219990D03*
X90100035Y-106219990D03*
X89600035Y-106219990D03*
X89100035Y-106219990D03*
X88600035Y-106219990D03*
X88100035Y-106219990D03*
X87600035Y-106219990D03*
X87100035Y-106219990D03*
X86600035Y-106219990D03*
X86100035Y-106219990D03*
X85600035Y-106219990D03*
X85100035Y-106219990D03*
X84600035Y-106219990D03*
D55*
X141712500Y-92050000D03*
X138587500Y-92050000D03*
D37*
X145462535Y-78049990D03*
X145462535Y-79949990D03*
X147337535Y-78999990D03*
D53*
X150900035Y-83299990D03*
X152900035Y-83299990D03*
D40*
X140000035Y-56574990D03*
X140000035Y-58224990D03*
D24*
X158850035Y-67699990D03*
X156950035Y-67699990D03*
X157900035Y-69699990D03*
D56*
X149600035Y-91199990D03*
X149600035Y-93199990D03*
D57*
X90020035Y-39799990D03*
X90980035Y-39799990D03*
D58*
X98812535Y-115199990D03*
X100387535Y-115199990D03*
D59*
X167250000Y-93705000D03*
X167250000Y-88795000D03*
D60*
X162875035Y-40899990D03*
X158725035Y-40899990D03*
D54*
X118800035Y-106219990D03*
X118300035Y-106219990D03*
X117800035Y-106219990D03*
X117300035Y-106219990D03*
X116800035Y-106219990D03*
X116300035Y-106219990D03*
X115800035Y-106219990D03*
X115300035Y-106219990D03*
X114800035Y-106219990D03*
X114300035Y-106219990D03*
X113800035Y-106219990D03*
X113300035Y-106219990D03*
X112800035Y-106219990D03*
X112300035Y-106219990D03*
X111800035Y-106219990D03*
X111300035Y-106219990D03*
X110800035Y-106219990D03*
X110300035Y-106219990D03*
X109800035Y-106219990D03*
D18*
X154350000Y-86650000D03*
X152250000Y-86650000D03*
D13*
X136400035Y-58224990D03*
X136400035Y-56574990D03*
D61*
X114350000Y-73750000D03*
X114350000Y-71850000D03*
D40*
X138200035Y-56574990D03*
X138200035Y-58224990D03*
D62*
X138300035Y-41912490D03*
X138300035Y-35687490D03*
D44*
X154975000Y-47799990D03*
X154975000Y-49699990D03*
D35*
X168250000Y-56900000D03*
X170150000Y-56900000D03*
D63*
X131475035Y-97799990D03*
X133125035Y-97799990D03*
D64*
X167300000Y-84600000D03*
X163000000Y-84600000D03*
D39*
X117700000Y-68550000D03*
X119250000Y-68550000D03*
D36*
X122700035Y-100612490D03*
X122700035Y-98787490D03*
D56*
X152300000Y-91250000D03*
X152300000Y-93250000D03*
D31*
X166615000Y-50567000D03*
X164715000Y-50567000D03*
D35*
X117525000Y-66550000D03*
X119425000Y-66550000D03*
D34*
X171084400Y-43218100D03*
X171084400Y-44238100D03*
D65*
X112650035Y-77999990D03*
X112650035Y-83399990D03*
D35*
X159275000Y-47727000D03*
X161175000Y-47727000D03*
D66*
X125000000Y-65312500D03*
X123100000Y-65312500D03*
X124050000Y-67187500D03*
D35*
X168315000Y-54767000D03*
X170215000Y-54767000D03*
D67*
X123225000Y-62250000D03*
X124875000Y-62250000D03*
D45*
X160400070Y-67819980D03*
X160400070Y-68779980D03*
D63*
X124575035Y-100600000D03*
X126225035Y-100600000D03*
D58*
X102812535Y-115199990D03*
X104387535Y-115199990D03*
D35*
X159275000Y-45427000D03*
X161175000Y-45427000D03*
D68*
X113000000Y-44200000D03*
X112000000Y-44200000D03*
X111000000Y-44200000D03*
X110000000Y-44200000D03*
X109000000Y-44200000D03*
X108000000Y-44200000D03*
X107000000Y-44200000D03*
X106000000Y-44200000D03*
X105000000Y-44200000D03*
X104000000Y-44200000D03*
X103000000Y-44200000D03*
X102000000Y-44200000D03*
X101000000Y-44200000D03*
X100000000Y-44200000D03*
X99000000Y-44200000D03*
D69*
X115990000Y-41400000D03*
X96010000Y-41400000D03*
M02*
